<?xml version="1.0" encoding="UTF-8" standalone="no"?>
<!DOCTYPE svg PUBLIC "-//W3C//DTD SVG 1.1//EN" "http://www.w3.org/Graphics/SVG/1.1/DTD/svg11.dtd">
<svg width="100%" height="100%" viewBox="0 0 569 296" version="1.1" xmlns="http://www.w3.org/2000/svg" xmlns:xlink="http://www.w3.org/1999/xlink" xml:space="preserve" xmlns:serif="http://www.serif.com/" style="fill-rule:evenodd;clip-rule:evenodd;stroke-linejoin:round;stroke-miterlimit:2;">
    <g transform="matrix(1,0,0,1,-47.432,-259.742)">
        <g transform="matrix(1,0,0,1,-1005.71,0)">
            <g id="star" transform="matrix(0.732787,-0.519846,0.519846,0.732787,302.552,548.302)">
                <path d="M901,281L946.376,383.545L1057.92,395.012L974.42,469.856L997.985,579.488L901,523.199L804.015,579.488L827.58,469.856L744.076,395.012L855.624,383.545L901,281Z" style="fill:rgb(255,204,0);"/>
            </g>
        </g>
        <g transform="matrix(1,0,0,1,-1005.71,0)">
            <g id="tail" transform="matrix(0.839235,0,0,0.839235,208.964,157.871)">
                <path d="M1683.21,379.162C1641.64,361.236 1232.05,303.83 1173.88,339.23L1144.24,279.259C1137.87,196.333 1461.34,76.663 1610.59,138.451C1525.49,142.672 1433.17,183.068 1370.25,215.876C1493.44,193.381 1557.82,190.805 1663.01,245.119C1573.05,238.63 1502.19,245.086 1441,270C1531.97,277.268 1621.52,306.573 1683.21,379.162Z" style="fill:url(#_Radial1);"/>
            </g>
        </g>
    </g>
    <defs>
        <radialGradient id="_Radial1" cx="0" cy="0" r="1" gradientUnits="userSpaceOnUse" gradientTransform="matrix(591.746,-101.056,101.056,591.746,1149.56,312.827)"><stop offset="0" style="stop-color:rgb(255,204,0);stop-opacity:0.7"/><stop offset="1" style="stop-color:rgb(255,204,0);stop-opacity:0"/></radialGradient>
    </defs>
</svg>
