<?xml version="1.0" encoding="UTF-8" standalone="no"?>
<!DOCTYPE svg PUBLIC "-//W3C//DTD SVG 1.1//EN" "http://www.w3.org/Graphics/SVG/1.1/DTD/svg11.dtd">
<svg width="100%" height="100%" viewBox="0 0 42 42" version="1.1" xmlns="http://www.w3.org/2000/svg" xmlns:xlink="http://www.w3.org/1999/xlink" xml:space="preserve" xmlns:serif="http://www.serif.com/" style="fill-rule:evenodd;clip-rule:evenodd;stroke-linejoin:round;stroke-miterlimit:2;">
    <rect id="Settings" x="0" y="0" width="42" height="42" style="fill:none;"/>
    <clipPath id="_clip1">
        <rect x="0" y="0" width="42" height="42"/>
    </clipPath>
    <g clip-path="url(#_clip1)">
        <path d="M8.5,13.804c-0.828,0 -1.5,-0.672 -1.5,-1.5c-0,-0.828 0.672,-1.5 1.5,-1.5l25,0c0.828,0 1.5,0.672 1.5,1.5c-0,0.828 -0.672,1.5 -1.5,1.5l-25,0Z" style="fill:#fff;"/>
        <path d="M8.5,22.5c-0.828,0 -1.5,-0.672 -1.5,-1.5c-0,-0.828 0.672,-1.5 1.5,-1.5l25,0c0.828,0 1.5,0.672 1.5,1.5c-0,0.828 -0.672,1.5 -1.5,1.5l-25,0Z" style="fill:#fff;"/>
        <path d="M8.5,31.196c-0.828,-0 -1.5,-0.672 -1.5,-1.5c-0,-0.828 0.672,-1.5 1.5,-1.5l25,-0c0.828,-0 1.5,0.672 1.5,1.5c-0,0.828 -0.672,1.5 -1.5,1.5l-25,-0Z" style="fill:#fff;"/>
    </g>
</svg>
