<?xml version="1.0" encoding="UTF-8" standalone="no"?>
<!DOCTYPE svg PUBLIC "-//W3C//DTD SVG 1.1//EN" "http://www.w3.org/Graphics/SVG/1.1/DTD/svg11.dtd">
<svg width="100%" height="100%" viewBox="0 0 42 42" version="1.1" xmlns="http://www.w3.org/2000/svg" xmlns:xlink="http://www.w3.org/1999/xlink" xml:space="preserve" xmlns:serif="http://www.serif.com/" style="fill-rule:evenodd;clip-rule:evenodd;stroke-linecap:round;stroke-linejoin:round;stroke-miterlimit:1.5;">
    <rect id="Snow-false" serif:id="Snow false" x="0" y="0" width="42" height="42" style="fill:none;"/>
    <clipPath id="_clip1">
        <rect x="0" y="0" width="42" height="42"/>
    </clipPath>
    <g clip-path="url(#_clip1)">
        <path d="M16.009,22.5l-7.178,5.205c-0.67,0.486 -1.609,0.336 -2.095,-0.334c-0.486,-0.67 -0.336,-1.609 0.334,-2.095c0,0 2.136,-1.548 3.829,-2.776l-2.399,0c-0.828,-0 -1.5,-0.672 -1.5,-1.5c0,-0.828 0.672,-1.5 1.5,-1.5l2.351,0l-3.788,-2.782c-0.667,-0.489 -0.811,-1.429 -0.321,-2.096c0.49,-0.668 1.429,-0.812 2.096,-0.322l7.082,5.2l3.58,0l0,-2.989l-5.171,-7.13c-0.486,-0.671 -0.336,-1.609 0.334,-2.095c0.67,-0.486 1.609,-0.337 2.095,0.333c-0,0 1.52,2.097 2.742,3.782l0,-2.901c0,-0.828 0.672,-1.5 1.5,-1.5c0.828,0 1.5,0.672 1.5,1.5l0,2.947l2.816,-3.835c0.49,-0.667 1.429,-0.811 2.096,-0.321c0.668,0.49 0.812,1.429 0.322,2.097l-5.234,7.128l0,2.984l3.491,-0l7.178,-5.205c0.67,-0.486 1.609,-0.336 2.095,0.334c0.486,0.67 0.336,1.609 -0.334,2.095c-0,-0 -2.136,1.548 -3.829,2.776l2.399,-0c0.828,-0 1.5,0.672 1.5,1.5c0,0.828 -0.672,1.5 -1.5,1.5l-2.351,-0l3.788,2.782c0.667,0.489 0.811,1.429 0.321,2.096c-0.49,0.668 -1.429,0.812 -2.096,0.322l-7.082,-5.2l-3.58,0l0,2.895l5.239,7.224c0.486,0.671 0.336,1.609 -0.334,2.095c-0.67,0.486 -1.609,0.337 -2.095,-0.333c0,-0 -1.577,-2.176 -2.81,-3.876l0,2.995c0,0.828 -0.672,1.5 -1.5,1.5c-0.828,0 -1.5,-0.672 -1.5,-1.5l0,-2.854l-2.747,3.742c-0.49,0.667 -1.43,0.811 -2.097,0.321c-0.668,-0.49 -0.812,-1.429 -0.322,-2.097l5.166,-7.035l0,-3.077l-3.491,0Z" style="fill:#fff;fill-opacity:0.5;"/>
        <path d="M4.518,37.743l33.154,-33.153" style="fill:none;stroke:#fff;stroke-width:3px;"/>
    </g>
</svg>
