<?xml version="1.0" encoding="UTF-8" standalone="no"?>
<!DOCTYPE svg PUBLIC "-//W3C//DTD SVG 1.1//EN" "http://www.w3.org/Graphics/SVG/1.1/DTD/svg11.dtd">
<svg width="100%" height="100%" viewBox="0 0 1920 2160" version="1.1" xmlns="http://www.w3.org/2000/svg" xmlns:xlink="http://www.w3.org/1999/xlink" xml:space="preserve" xmlns:serif="http://www.serif.com/" style="fill-rule:evenodd;clip-rule:evenodd;stroke-linejoin:round;stroke-miterlimit:2;">
    <g id="snow">
        <g transform="matrix(0.145491,-0.0274298,0.0274298,0.145491,97.2398,1205.54)">
            <path d="M304.029,276.898L286.625,294.301L279.699,287.375C279.699,287.375 295.074,272 295.074,272L279.699,256.625L286.625,249.699L304.029,267.102L319.176,267.102L308.699,256.625L315.625,249.699L333.029,267.102L352.176,267.102L318.131,233.057L294.941,233.057L294.941,223.262C294.941,223.262 316.684,223.262 316.684,223.262L316.684,201.519L326.479,201.519L326.479,227.553L359.102,260.176L359.102,241.029L341.699,223.625L348.625,216.699C348.625,216.699 354.602,222.676 359.102,227.176L359.102,212.029L341.699,194.625L348.625,187.699C348.625,187.699 364,203.074 364,203.074L379.375,187.699L386.301,194.625L368.898,212.029L368.898,227.176L379.375,216.699L386.301,223.625L368.898,241.029L368.898,260.176L402.943,226.131L402.943,201.519L412.738,201.519C412.738,201.519 412.738,223.262 412.738,223.262L434.481,223.262L434.481,233.057L409.869,233.057L375.824,267.102L395.138,267.102L412.375,249.866L419.301,256.792C419.301,256.792 413.47,262.622 408.99,267.102L423.971,267.102L441.375,249.699L448.301,256.625C448.301,256.625 432.926,272 432.926,272L448.301,287.375L441.375,294.301L423.971,276.898L408.657,276.898L419.301,287.541L412.375,294.468L394.805,276.898L375.824,276.898L409.869,310.943L434.481,310.943L434.481,320.738C434.481,320.738 412.738,320.738 412.738,320.738L412.738,342.481L402.943,342.481L402.943,317.869L368.898,283.824L368.898,303.138L386.301,320.541L379.375,327.468C379.375,327.468 373.398,321.491 368.898,316.99L368.898,332.138L386.301,349.541L379.375,356.468C379.375,356.468 364,341.093 364,341.093L348.625,356.468L341.699,349.541L359.102,332.138L359.102,316.99L348.625,327.468L341.699,320.541L359.102,303.138L359.102,283.824L325.057,317.869L325.057,342.481L315.262,342.481C315.262,342.481 315.262,320.738 315.262,320.738L293.519,320.738L293.519,310.943L318.131,310.943L352.176,276.898L333.029,276.898L315.625,294.301L308.699,287.375C308.699,287.375 314.676,281.398 319.176,276.898L304.029,276.898Z" style="fill:white;"/>
        </g>
        <g transform="matrix(0.145491,-0.0274298,0.0274298,0.145491,598.802,1718.04)">
            <path d="M304.029,276.898L286.625,294.301L279.699,287.375C279.699,287.375 295.074,272 295.074,272L279.699,256.625L286.625,249.699L304.029,267.102L319.176,267.102L308.699,256.625L315.625,249.699L333.029,267.102L352.176,267.102L318.131,233.057L294.941,233.057L294.941,223.262C294.941,223.262 316.684,223.262 316.684,223.262L316.684,201.519L326.479,201.519L326.479,227.553L359.102,260.176L359.102,241.029L341.699,223.625L348.625,216.699C348.625,216.699 354.602,222.676 359.102,227.176L359.102,212.029L341.699,194.625L348.625,187.699C348.625,187.699 364,203.074 364,203.074L379.375,187.699L386.301,194.625L368.898,212.029L368.898,227.176L379.375,216.699L386.301,223.625L368.898,241.029L368.898,260.176L402.943,226.131L402.943,201.519L412.738,201.519C412.738,201.519 412.738,223.262 412.738,223.262L434.481,223.262L434.481,233.057L409.869,233.057L375.824,267.102L395.138,267.102L412.375,249.866L419.301,256.792C419.301,256.792 413.47,262.622 408.99,267.102L423.971,267.102L441.375,249.699L448.301,256.625C448.301,256.625 432.926,272 432.926,272L448.301,287.375L441.375,294.301L423.971,276.898L408.657,276.898L419.301,287.541L412.375,294.468L394.805,276.898L375.824,276.898L409.869,310.943L434.481,310.943L434.481,320.738C434.481,320.738 412.738,320.738 412.738,320.738L412.738,342.481L402.943,342.481L402.943,317.869L368.898,283.824L368.898,303.138L386.301,320.541L379.375,327.468C379.375,327.468 373.398,321.491 368.898,316.99L368.898,332.138L386.301,349.541L379.375,356.468C379.375,356.468 364,341.093 364,341.093L348.625,356.468L341.699,349.541L359.102,332.138L359.102,316.99L348.625,327.468L341.699,320.541L359.102,303.138L359.102,283.824L325.057,317.869L325.057,342.481L315.262,342.481C315.262,342.481 315.262,320.738 315.262,320.738L293.519,320.738L293.519,310.943L318.131,310.943L352.176,276.898L333.029,276.898L315.625,294.301L308.699,287.375C308.699,287.375 314.676,281.398 319.176,276.898L304.029,276.898Z" style="fill:white;"/>
        </g>
        <g transform="matrix(0.145491,-0.0274298,0.0274298,0.145491,1634.74,1446.17)">
            <path d="M304.029,276.898L286.625,294.301L279.699,287.375C279.699,287.375 295.074,272 295.074,272L279.699,256.625L286.625,249.699L304.029,267.102L319.176,267.102L308.699,256.625L315.625,249.699L333.029,267.102L352.176,267.102L318.131,233.057L294.941,233.057L294.941,223.262C294.941,223.262 316.684,223.262 316.684,223.262L316.684,201.519L326.479,201.519L326.479,227.553L359.102,260.176L359.102,241.029L341.699,223.625L348.625,216.699C348.625,216.699 354.602,222.676 359.102,227.176L359.102,212.029L341.699,194.625L348.625,187.699C348.625,187.699 364,203.074 364,203.074L379.375,187.699L386.301,194.625L368.898,212.029L368.898,227.176L379.375,216.699L386.301,223.625L368.898,241.029L368.898,260.176L402.943,226.131L402.943,201.519L412.738,201.519C412.738,201.519 412.738,223.262 412.738,223.262L434.481,223.262L434.481,233.057L409.869,233.057L375.824,267.102L395.138,267.102L412.375,249.866L419.301,256.792C419.301,256.792 413.47,262.622 408.99,267.102L423.971,267.102L441.375,249.699L448.301,256.625C448.301,256.625 432.926,272 432.926,272L448.301,287.375L441.375,294.301L423.971,276.898L408.657,276.898L419.301,287.541L412.375,294.468L394.805,276.898L375.824,276.898L409.869,310.943L434.481,310.943L434.481,320.738C434.481,320.738 412.738,320.738 412.738,320.738L412.738,342.481L402.943,342.481L402.943,317.869L368.898,283.824L368.898,303.138L386.301,320.541L379.375,327.468C379.375,327.468 373.398,321.491 368.898,316.99L368.898,332.138L386.301,349.541L379.375,356.468C379.375,356.468 364,341.093 364,341.093L348.625,356.468L341.699,349.541L359.102,332.138L359.102,316.99L348.625,327.468L341.699,320.541L359.102,303.138L359.102,283.824L325.057,317.869L325.057,342.481L315.262,342.481C315.262,342.481 315.262,320.738 315.262,320.738L293.519,320.738L293.519,310.943L318.131,310.943L352.176,276.898L333.029,276.898L315.625,294.301L308.699,287.375C308.699,287.375 314.676,281.398 319.176,276.898L304.029,276.898Z" style="fill:white;"/>
        </g>
        <g transform="matrix(0.145491,-0.0274298,0.0274298,0.145491,1062.86,1178.98)">
            <path d="M304.029,276.898L286.625,294.301L279.699,287.375C279.699,287.375 295.074,272 295.074,272L279.699,256.625L286.625,249.699L304.029,267.102L319.176,267.102L308.699,256.625L315.625,249.699L333.029,267.102L352.176,267.102L318.131,233.057L294.941,233.057L294.941,223.262C294.941,223.262 316.684,223.262 316.684,223.262L316.684,201.519L326.479,201.519L326.479,227.553L359.102,260.176L359.102,241.029L341.699,223.625L348.625,216.699C348.625,216.699 354.602,222.676 359.102,227.176L359.102,212.029L341.699,194.625L348.625,187.699C348.625,187.699 364,203.074 364,203.074L379.375,187.699L386.301,194.625L368.898,212.029L368.898,227.176L379.375,216.699L386.301,223.625L368.898,241.029L368.898,260.176L402.943,226.131L402.943,201.519L412.738,201.519C412.738,201.519 412.738,223.262 412.738,223.262L434.481,223.262L434.481,233.057L409.869,233.057L375.824,267.102L395.138,267.102L412.375,249.866L419.301,256.792C419.301,256.792 413.47,262.622 408.99,267.102L423.971,267.102L441.375,249.699L448.301,256.625C448.301,256.625 432.926,272 432.926,272L448.301,287.375L441.375,294.301L423.971,276.898L408.657,276.898L419.301,287.541L412.375,294.468L394.805,276.898L375.824,276.898L409.869,310.943L434.481,310.943L434.481,320.738C434.481,320.738 412.738,320.738 412.738,320.738L412.738,342.481L402.943,342.481L402.943,317.869L368.898,283.824L368.898,303.138L386.301,320.541L379.375,327.468C379.375,327.468 373.398,321.491 368.898,316.99L368.898,332.138L386.301,349.541L379.375,356.468C379.375,356.468 364,341.093 364,341.093L348.625,356.468L341.699,349.541L359.102,332.138L359.102,316.99L348.625,327.468L341.699,320.541L359.102,303.138L359.102,283.824L325.057,317.869L325.057,342.481L315.262,342.481C315.262,342.481 315.262,320.738 315.262,320.738L293.519,320.738L293.519,310.943L318.131,310.943L352.176,276.898L333.029,276.898L315.625,294.301L308.699,287.375C308.699,287.375 314.676,281.398 319.176,276.898L304.029,276.898Z" style="fill:white;"/>
        </g>
        <g transform="matrix(0.145491,-0.0274298,0.0274298,0.145491,1180.05,1628.98)">
            <path d="M304.029,276.898L286.625,294.301L279.699,287.375C279.699,287.375 295.074,272 295.074,272L279.699,256.625L286.625,249.699L304.029,267.102L319.176,267.102L308.699,256.625L315.625,249.699L333.029,267.102L352.176,267.102L318.131,233.057L294.941,233.057L294.941,223.262C294.941,223.262 316.684,223.262 316.684,223.262L316.684,201.519L326.479,201.519L326.479,227.553L359.102,260.176L359.102,241.029L341.699,223.625L348.625,216.699C348.625,216.699 354.602,222.676 359.102,227.176L359.102,212.029L341.699,194.625L348.625,187.699C348.625,187.699 364,203.074 364,203.074L379.375,187.699L386.301,194.625L368.898,212.029L368.898,227.176L379.375,216.699L386.301,223.625L368.898,241.029L368.898,260.176L402.943,226.131L402.943,201.519L412.738,201.519C412.738,201.519 412.738,223.262 412.738,223.262L434.481,223.262L434.481,233.057L409.869,233.057L375.824,267.102L395.138,267.102L412.375,249.866L419.301,256.792C419.301,256.792 413.47,262.622 408.99,267.102L423.971,267.102L441.375,249.699L448.301,256.625C448.301,256.625 432.926,272 432.926,272L448.301,287.375L441.375,294.301L423.971,276.898L408.657,276.898L419.301,287.541L412.375,294.468L394.805,276.898L375.824,276.898L409.869,310.943L434.481,310.943L434.481,320.738C434.481,320.738 412.738,320.738 412.738,320.738L412.738,342.481L402.943,342.481L402.943,317.869L368.898,283.824L368.898,303.138L386.301,320.541L379.375,327.468C379.375,327.468 373.398,321.491 368.898,316.99L368.898,332.138L386.301,349.541L379.375,356.468C379.375,356.468 364,341.093 364,341.093L348.625,356.468L341.699,349.541L359.102,332.138L359.102,316.99L348.625,327.468L341.699,320.541L359.102,303.138L359.102,283.824L325.057,317.869L325.057,342.481L315.262,342.481C315.262,342.481 315.262,320.738 315.262,320.738L293.519,320.738L293.519,310.943L318.131,310.943L352.176,276.898L333.029,276.898L315.625,294.301L308.699,287.375C308.699,287.375 314.676,281.398 319.176,276.898L304.029,276.898Z" style="fill:white;"/>
        </g>
        <g transform="matrix(0.145491,-0.0274298,0.0274298,0.145491,603.49,1339.92)">
            <path d="M304.029,276.898L286.625,294.301L279.699,287.375C279.699,287.375 295.074,272 295.074,272L279.699,256.625L286.625,249.699L304.029,267.102L319.176,267.102L308.699,256.625L315.625,249.699L333.029,267.102L352.176,267.102L318.131,233.057L294.941,233.057L294.941,223.262C294.941,223.262 316.684,223.262 316.684,223.262L316.684,201.519L326.479,201.519L326.479,227.553L359.102,260.176L359.102,241.029L341.699,223.625L348.625,216.699C348.625,216.699 354.602,222.676 359.102,227.176L359.102,212.029L341.699,194.625L348.625,187.699C348.625,187.699 364,203.074 364,203.074L379.375,187.699L386.301,194.625L368.898,212.029L368.898,227.176L379.375,216.699L386.301,223.625L368.898,241.029L368.898,260.176L402.943,226.131L402.943,201.519L412.738,201.519C412.738,201.519 412.738,223.262 412.738,223.262L434.481,223.262L434.481,233.057L409.869,233.057L375.824,267.102L395.138,267.102L412.375,249.866L419.301,256.792C419.301,256.792 413.47,262.622 408.99,267.102L423.971,267.102L441.375,249.699L448.301,256.625C448.301,256.625 432.926,272 432.926,272L448.301,287.375L441.375,294.301L423.971,276.898L408.657,276.898L419.301,287.541L412.375,294.468L394.805,276.898L375.824,276.898L409.869,310.943L434.481,310.943L434.481,320.738C434.481,320.738 412.738,320.738 412.738,320.738L412.738,342.481L402.943,342.481L402.943,317.869L368.898,283.824L368.898,303.138L386.301,320.541L379.375,327.468C379.375,327.468 373.398,321.491 368.898,316.99L368.898,332.138L386.301,349.541L379.375,356.468C379.375,356.468 364,341.093 364,341.093L348.625,356.468L341.699,349.541L359.102,332.138L359.102,316.99L348.625,327.468L341.699,320.541L359.102,303.138L359.102,283.824L325.057,317.869L325.057,342.481L315.262,342.481C315.262,342.481 315.262,320.738 315.262,320.738L293.519,320.738L293.519,310.943L318.131,310.943L352.176,276.898L333.029,276.898L315.625,294.301L308.699,287.375C308.699,287.375 314.676,281.398 319.176,276.898L304.029,276.898Z" style="fill:white;"/>
        </g>
        <g transform="matrix(0.145491,-0.0274298,0.0274298,0.145491,265.99,1927.42)">
            <path d="M304.029,276.898L286.625,294.301L279.699,287.375C279.699,287.375 295.074,272 295.074,272L279.699,256.625L286.625,249.699L304.029,267.102L319.176,267.102L308.699,256.625L315.625,249.699L333.029,267.102L352.176,267.102L318.131,233.057L294.941,233.057L294.941,223.262C294.941,223.262 316.684,223.262 316.684,223.262L316.684,201.519L326.479,201.519L326.479,227.553L359.102,260.176L359.102,241.029L341.699,223.625L348.625,216.699C348.625,216.699 354.602,222.676 359.102,227.176L359.102,212.029L341.699,194.625L348.625,187.699C348.625,187.699 364,203.074 364,203.074L379.375,187.699L386.301,194.625L368.898,212.029L368.898,227.176L379.375,216.699L386.301,223.625L368.898,241.029L368.898,260.176L402.943,226.131L402.943,201.519L412.738,201.519C412.738,201.519 412.738,223.262 412.738,223.262L434.481,223.262L434.481,233.057L409.869,233.057L375.824,267.102L395.138,267.102L412.375,249.866L419.301,256.792C419.301,256.792 413.47,262.622 408.99,267.102L423.971,267.102L441.375,249.699L448.301,256.625C448.301,256.625 432.926,272 432.926,272L448.301,287.375L441.375,294.301L423.971,276.898L408.657,276.898L419.301,287.541L412.375,294.468L394.805,276.898L375.824,276.898L409.869,310.943L434.481,310.943L434.481,320.738C434.481,320.738 412.738,320.738 412.738,320.738L412.738,342.481L402.943,342.481L402.943,317.869L368.898,283.824L368.898,303.138L386.301,320.541L379.375,327.468C379.375,327.468 373.398,321.491 368.898,316.99L368.898,332.138L386.301,349.541L379.375,356.468C379.375,356.468 364,341.093 364,341.093L348.625,356.468L341.699,349.541L359.102,332.138L359.102,316.99L348.625,327.468L341.699,320.541L359.102,303.138L359.102,283.824L325.057,317.869L325.057,342.481L315.262,342.481C315.262,342.481 315.262,320.738 315.262,320.738L293.519,320.738L293.519,310.943L318.131,310.943L352.176,276.898L333.029,276.898L315.625,294.301L308.699,287.375C308.699,287.375 314.676,281.398 319.176,276.898L304.029,276.898Z" style="fill:white;"/>
        </g>
        <g transform="matrix(0.145491,-0.0274298,0.0274298,0.145491,705.052,2080.54)">
            <path d="M304.029,276.898L286.625,294.301L279.699,287.375C279.699,287.375 295.074,272 295.074,272L279.699,256.625L286.625,249.699L304.029,267.102L319.176,267.102L308.699,256.625L315.625,249.699L333.029,267.102L352.176,267.102L318.131,233.057L294.941,233.057L294.941,223.262C294.941,223.262 316.684,223.262 316.684,223.262L316.684,201.519L326.479,201.519L326.479,227.553L359.102,260.176L359.102,241.029L341.699,223.625L348.625,216.699C348.625,216.699 354.602,222.676 359.102,227.176L359.102,212.029L341.699,194.625L348.625,187.699C348.625,187.699 364,203.074 364,203.074L379.375,187.699L386.301,194.625L368.898,212.029L368.898,227.176L379.375,216.699L386.301,223.625L368.898,241.029L368.898,260.176L402.943,226.131L402.943,201.519L412.738,201.519C412.738,201.519 412.738,223.262 412.738,223.262L434.481,223.262L434.481,233.057L409.869,233.057L375.824,267.102L395.138,267.102L412.375,249.866L419.301,256.792C419.301,256.792 413.47,262.622 408.99,267.102L423.971,267.102L441.375,249.699L448.301,256.625C448.301,256.625 432.926,272 432.926,272L448.301,287.375L441.375,294.301L423.971,276.898L408.657,276.898L419.301,287.541L412.375,294.468L394.805,276.898L375.824,276.898L409.869,310.943L434.481,310.943L434.481,320.738C434.481,320.738 412.738,320.738 412.738,320.738L412.738,342.481L402.943,342.481L402.943,317.869L368.898,283.824L368.898,303.138L386.301,320.541L379.375,327.468C379.375,327.468 373.398,321.491 368.898,316.99L368.898,332.138L386.301,349.541L379.375,356.468C379.375,356.468 364,341.093 364,341.093L348.625,356.468L341.699,349.541L359.102,332.138L359.102,316.99L348.625,327.468L341.699,320.541L359.102,303.138L359.102,283.824L325.057,317.869L325.057,342.481L315.262,342.481C315.262,342.481 315.262,320.738 315.262,320.738L293.519,320.738L293.519,310.943L318.131,310.943L352.176,276.898L333.029,276.898L315.625,294.301L308.699,287.375C308.699,287.375 314.676,281.398 319.176,276.898L304.029,276.898Z" style="fill:white;"/>
        </g>
        <g transform="matrix(0.145491,-0.0274298,0.0274298,0.145491,1497.24,1977.42)">
            <path d="M304.029,276.898L286.625,294.301L279.699,287.375C279.699,287.375 295.074,272 295.074,272L279.699,256.625L286.625,249.699L304.029,267.102L319.176,267.102L308.699,256.625L315.625,249.699L333.029,267.102L352.176,267.102L318.131,233.057L294.941,233.057L294.941,223.262C294.941,223.262 316.684,223.262 316.684,223.262L316.684,201.519L326.479,201.519L326.479,227.553L359.102,260.176L359.102,241.029L341.699,223.625L348.625,216.699C348.625,216.699 354.602,222.676 359.102,227.176L359.102,212.029L341.699,194.625L348.625,187.699C348.625,187.699 364,203.074 364,203.074L379.375,187.699L386.301,194.625L368.898,212.029L368.898,227.176L379.375,216.699L386.301,223.625L368.898,241.029L368.898,260.176L402.943,226.131L402.943,201.519L412.738,201.519C412.738,201.519 412.738,223.262 412.738,223.262L434.481,223.262L434.481,233.057L409.869,233.057L375.824,267.102L395.138,267.102L412.375,249.866L419.301,256.792C419.301,256.792 413.47,262.622 408.99,267.102L423.971,267.102L441.375,249.699L448.301,256.625C448.301,256.625 432.926,272 432.926,272L448.301,287.375L441.375,294.301L423.971,276.898L408.657,276.898L419.301,287.541L412.375,294.468L394.805,276.898L375.824,276.898L409.869,310.943L434.481,310.943L434.481,320.738C434.481,320.738 412.738,320.738 412.738,320.738L412.738,342.481L402.943,342.481L402.943,317.869L368.898,283.824L368.898,303.138L386.301,320.541L379.375,327.468C379.375,327.468 373.398,321.491 368.898,316.99L368.898,332.138L386.301,349.541L379.375,356.468C379.375,356.468 364,341.093 364,341.093L348.625,356.468L341.699,349.541L359.102,332.138L359.102,316.99L348.625,327.468L341.699,320.541L359.102,303.138L359.102,283.824L325.057,317.869L325.057,342.481L315.262,342.481C315.262,342.481 315.262,320.738 315.262,320.738L293.519,320.738L293.519,310.943L318.131,310.943L352.176,276.898L333.029,276.898L315.625,294.301L308.699,287.375C308.699,287.375 314.676,281.398 319.176,276.898L304.029,276.898Z" style="fill:white;"/>
        </g>
        <g transform="matrix(0.145491,-0.0274298,0.0274298,0.145491,1522.24,1191.48)">
            <path d="M304.029,276.898L286.625,294.301L279.699,287.375C279.699,287.375 295.074,272 295.074,272L279.699,256.625L286.625,249.699L304.029,267.102L319.176,267.102L308.699,256.625L315.625,249.699L333.029,267.102L352.176,267.102L318.131,233.057L294.941,233.057L294.941,223.262C294.941,223.262 316.684,223.262 316.684,223.262L316.684,201.519L326.479,201.519L326.479,227.553L359.102,260.176L359.102,241.029L341.699,223.625L348.625,216.699C348.625,216.699 354.602,222.676 359.102,227.176L359.102,212.029L341.699,194.625L348.625,187.699C348.625,187.699 364,203.074 364,203.074L379.375,187.699L386.301,194.625L368.898,212.029L368.898,227.176L379.375,216.699L386.301,223.625L368.898,241.029L368.898,260.176L402.943,226.131L402.943,201.519L412.738,201.519C412.738,201.519 412.738,223.262 412.738,223.262L434.481,223.262L434.481,233.057L409.869,233.057L375.824,267.102L395.138,267.102L412.375,249.866L419.301,256.792C419.301,256.792 413.47,262.622 408.99,267.102L423.971,267.102L441.375,249.699L448.301,256.625C448.301,256.625 432.926,272 432.926,272L448.301,287.375L441.375,294.301L423.971,276.898L408.657,276.898L419.301,287.541L412.375,294.468L394.805,276.898L375.824,276.898L409.869,310.943L434.481,310.943L434.481,320.738C434.481,320.738 412.738,320.738 412.738,320.738L412.738,342.481L402.943,342.481L402.943,317.869L368.898,283.824L368.898,303.138L386.301,320.541L379.375,327.468C379.375,327.468 373.398,321.491 368.898,316.99L368.898,332.138L386.301,349.541L379.375,356.468C379.375,356.468 364,341.093 364,341.093L348.625,356.468L341.699,349.541L359.102,332.138L359.102,316.99L348.625,327.468L341.699,320.541L359.102,303.138L359.102,283.824L325.057,317.869L325.057,342.481L315.262,342.481C315.262,342.481 315.262,320.738 315.262,320.738L293.519,320.738L293.519,310.943L318.131,310.943L352.176,276.898L333.029,276.898L315.625,294.301L308.699,287.375C308.699,287.375 314.676,281.398 319.176,276.898L304.029,276.898Z" style="fill:white;"/>
        </g>
        <g transform="matrix(0.145491,-0.0274298,0.0274298,0.145491,11.3024,1580.54)">
            <path d="M304.029,276.898L286.625,294.301L279.699,287.375C279.699,287.375 295.074,272 295.074,272L279.699,256.625L286.625,249.699L304.029,267.102L319.176,267.102L308.699,256.625L315.625,249.699L333.029,267.102L352.176,267.102L318.131,233.057L294.941,233.057L294.941,223.262C294.941,223.262 316.684,223.262 316.684,223.262L316.684,201.519L326.479,201.519L326.479,227.553L359.102,260.176L359.102,241.029L341.699,223.625L348.625,216.699C348.625,216.699 354.602,222.676 359.102,227.176L359.102,212.029L341.699,194.625L348.625,187.699C348.625,187.699 364,203.074 364,203.074L379.375,187.699L386.301,194.625L368.898,212.029L368.898,227.176L379.375,216.699L386.301,223.625L368.898,241.029L368.898,260.176L402.943,226.131L402.943,201.519L412.738,201.519C412.738,201.519 412.738,223.262 412.738,223.262L434.481,223.262L434.481,233.057L409.869,233.057L375.824,267.102L395.138,267.102L412.375,249.866L419.301,256.792C419.301,256.792 413.47,262.622 408.99,267.102L423.971,267.102L441.375,249.699L448.301,256.625C448.301,256.625 432.926,272 432.926,272L448.301,287.375L441.375,294.301L423.971,276.898L408.657,276.898L419.301,287.541L412.375,294.468L394.805,276.898L375.824,276.898L409.869,310.943L434.481,310.943L434.481,320.738C434.481,320.738 412.738,320.738 412.738,320.738L412.738,342.481L402.943,342.481L402.943,317.869L368.898,283.824L368.898,303.138L386.301,320.541L379.375,327.468C379.375,327.468 373.398,321.491 368.898,316.99L368.898,332.138L386.301,349.541L379.375,356.468C379.375,356.468 364,341.093 364,341.093L348.625,356.468L341.699,349.541L359.102,332.138L359.102,316.99L348.625,327.468L341.699,320.541L359.102,303.138L359.102,283.824L325.057,317.869L325.057,342.481L315.262,342.481C315.262,342.481 315.262,320.738 315.262,320.738L293.519,320.738L293.519,310.943L318.131,310.943L352.176,276.898L333.029,276.898L315.625,294.301L308.699,287.375C308.699,287.375 314.676,281.398 319.176,276.898L304.029,276.898Z" style="fill:white;"/>
        </g>
        <g transform="matrix(0.176444,-0.0862434,0.0862434,0.176444,872.316,2030.42)">
            <path d="M322.087,275.692L302,275.692L302,268.308L322.087,268.308L309.552,255.773L314.773,250.552L332.529,268.308L355.087,268.308L330.411,243.633L312.459,243.633L312.459,236.249L328.249,236.249L328.249,220.459L335.633,220.459L335.633,238.411L360.308,263.087L360.308,240.529L342.552,222.773L347.773,217.552L360.308,230.087L360.308,210L367.692,210L367.692,230.087L380.227,217.552L385.448,222.773L367.692,240.529L367.692,263.087L392.367,238.411L392.367,220.459L399.751,220.459L399.751,236.249L415.541,236.249L415.541,243.633L397.589,243.633L372.913,268.308L395.637,268.308L413.227,250.718L418.448,255.94L406.08,268.308L426,268.308L426,275.692L405.747,275.692L418.448,288.394L413.227,293.615L395.304,275.692L372.913,275.692L397.589,300.367L415.541,300.367L415.541,307.751L399.751,307.751L399.751,323.541L392.367,323.541L392.367,305.589L367.692,280.913L367.692,303.637L385.448,321.394L380.227,326.615L367.692,314.08L367.692,334L360.308,334L360.308,314.08L347.773,326.615L342.552,321.394L360.308,303.637L360.308,280.913L335.633,305.589L335.633,323.541L328.249,323.541L328.249,307.751L312.459,307.751L312.459,300.367L330.411,300.367L355.087,275.692L332.529,275.692L314.773,293.448L309.552,288.227L322.087,275.692Z" style="fill:white;"/>
        </g>
        <g transform="matrix(0.176444,-0.0862434,0.0862434,0.176444,283.254,1694.48)">
            <path d="M322.087,275.692L302,275.692L302,268.308L322.087,268.308L309.552,255.773L314.773,250.552L332.529,268.308L355.087,268.308L330.411,243.633L312.459,243.633L312.459,236.249L328.249,236.249L328.249,220.459L335.633,220.459L335.633,238.411L360.308,263.087L360.308,240.529L342.552,222.773L347.773,217.552L360.308,230.087L360.308,210L367.692,210L367.692,230.087L380.227,217.552L385.448,222.773L367.692,240.529L367.692,263.087L392.367,238.411L392.367,220.459L399.751,220.459L399.751,236.249L415.541,236.249L415.541,243.633L397.589,243.633L372.913,268.308L395.637,268.308L413.227,250.718L418.448,255.94L406.08,268.308L426,268.308L426,275.692L405.747,275.692L418.448,288.394L413.227,293.615L395.304,275.692L372.913,275.692L397.589,300.367L415.541,300.367L415.541,307.751L399.751,307.751L399.751,323.541L392.367,323.541L392.367,305.589L367.692,280.913L367.692,303.637L385.448,321.394L380.227,326.615L367.692,314.08L367.692,334L360.308,334L360.308,314.08L347.773,326.615L342.552,321.394L360.308,303.637L360.308,280.913L335.633,305.589L335.633,323.541L328.249,323.541L328.249,307.751L312.459,307.751L312.459,300.367L330.411,300.367L355.087,275.692L332.529,275.692L314.773,293.448L309.552,288.227L322.087,275.692Z" style="fill:white;"/>
        </g>
        <g transform="matrix(0.176444,-0.0862434,0.0862434,0.176444,841.066,1555.42)">
            <path d="M322.087,275.692L302,275.692L302,268.308L322.087,268.308L309.552,255.773L314.773,250.552L332.529,268.308L355.087,268.308L330.411,243.633L312.459,243.633L312.459,236.249L328.249,236.249L328.249,220.459L335.633,220.459L335.633,238.411L360.308,263.087L360.308,240.529L342.552,222.773L347.773,217.552L360.308,230.087L360.308,210L367.692,210L367.692,230.087L380.227,217.552L385.448,222.773L367.692,240.529L367.692,263.087L392.367,238.411L392.367,220.459L399.751,220.459L399.751,236.249L415.541,236.249L415.541,243.633L397.589,243.633L372.913,268.308L395.637,268.308L413.227,250.718L418.448,255.94L406.08,268.308L426,268.308L426,275.692L405.747,275.692L418.448,288.394L413.227,293.615L395.304,275.692L372.913,275.692L397.589,300.367L415.541,300.367L415.541,307.751L399.751,307.751L399.751,323.541L392.367,323.541L392.367,305.589L367.692,280.913L367.692,303.637L385.448,321.394L380.227,326.615L367.692,314.08L367.692,334L360.308,334L360.308,314.08L347.773,326.615L342.552,321.394L360.308,303.637L360.308,280.913L335.633,305.589L335.633,323.541L328.249,323.541L328.249,307.751L312.459,307.751L312.459,300.367L330.411,300.367L355.087,275.692L332.529,275.692L314.773,293.448L309.552,288.227L322.087,275.692Z" style="fill:white;"/>
        </g>
        <g transform="matrix(0.176444,-0.0862434,0.0862434,0.176444,414.504,1200.73)">
            <path d="M322.087,275.692L302,275.692L302,268.308L322.087,268.308L309.552,255.773L314.773,250.552L332.529,268.308L355.087,268.308L330.411,243.633L312.459,243.633L312.459,236.249L328.249,236.249L328.249,220.459L335.633,220.459L335.633,238.411L360.308,263.087L360.308,240.529L342.552,222.773L347.773,217.552L360.308,230.087L360.308,210L367.692,210L367.692,230.087L380.227,217.552L385.448,222.773L367.692,240.529L367.692,263.087L392.367,238.411L392.367,220.459L399.751,220.459L399.751,236.249L415.541,236.249L415.541,243.633L397.589,243.633L372.913,268.308L395.637,268.308L413.227,250.718L418.448,255.94L406.08,268.308L426,268.308L426,275.692L405.747,275.692L418.448,288.394L413.227,293.615L395.304,275.692L372.913,275.692L397.589,300.367L415.541,300.367L415.541,307.751L399.751,307.751L399.751,323.541L392.367,323.541L392.367,305.589L367.692,280.913L367.692,303.637L385.448,321.394L380.227,326.615L367.692,314.08L367.692,334L360.308,334L360.308,314.08L347.773,326.615L342.552,321.394L360.308,303.637L360.308,280.913L335.633,305.589L335.633,323.541L328.249,323.541L328.249,307.751L312.459,307.751L312.459,300.367L330.411,300.367L355.087,275.692L332.529,275.692L314.773,293.448L309.552,288.227L322.087,275.692Z" style="fill:white;"/>
        </g>
        <g transform="matrix(0.176444,-0.0862434,0.0862434,0.176444,244.192,1449.17)">
            <path d="M322.087,275.692L302,275.692L302,268.308L322.087,268.308L309.552,255.773L314.773,250.552L332.529,268.308L355.087,268.308L330.411,243.633L312.459,243.633L312.459,236.249L328.249,236.249L328.249,220.459L335.633,220.459L335.633,238.411L360.308,263.087L360.308,240.529L342.552,222.773L347.773,217.552L360.308,230.087L360.308,210L367.692,210L367.692,230.087L380.227,217.552L385.448,222.773L367.692,240.529L367.692,263.087L392.367,238.411L392.367,220.459L399.751,220.459L399.751,236.249L415.541,236.249L415.541,243.633L397.589,243.633L372.913,268.308L395.637,268.308L413.227,250.718L418.448,255.94L406.08,268.308L426,268.308L426,275.692L405.747,275.692L418.448,288.394L413.227,293.615L395.304,275.692L372.913,275.692L397.589,300.367L415.541,300.367L415.541,307.751L399.751,307.751L399.751,323.541L392.367,323.541L392.367,305.589L367.692,280.913L367.692,303.637L385.448,321.394L380.227,326.615L367.692,314.08L367.692,334L360.308,334L360.308,314.08L347.773,326.615L342.552,321.394L360.308,303.637L360.308,280.913L335.633,305.589L335.633,323.541L328.249,323.541L328.249,307.751L312.459,307.751L312.459,300.367L330.411,300.367L355.087,275.692L332.529,275.692L314.773,293.448L309.552,288.227L322.087,275.692Z" style="fill:white;"/>
        </g>
        <g transform="matrix(0.176444,-0.0862434,0.0862434,0.176444,1253.57,1172.61)">
            <path d="M322.087,275.692L302,275.692L302,268.308L322.087,268.308L309.552,255.773L314.773,250.552L332.529,268.308L355.087,268.308L330.411,243.633L312.459,243.633L312.459,236.249L328.249,236.249L328.249,220.459L335.633,220.459L335.633,238.411L360.308,263.087L360.308,240.529L342.552,222.773L347.773,217.552L360.308,230.087L360.308,210L367.692,210L367.692,230.087L380.227,217.552L385.448,222.773L367.692,240.529L367.692,263.087L392.367,238.411L392.367,220.459L399.751,220.459L399.751,236.249L415.541,236.249L415.541,243.633L397.589,243.633L372.913,268.308L395.637,268.308L413.227,250.718L418.448,255.94L406.08,268.308L426,268.308L426,275.692L405.747,275.692L418.448,288.394L413.227,293.615L395.304,275.692L372.913,275.692L397.589,300.367L415.541,300.367L415.541,307.751L399.751,307.751L399.751,323.541L392.367,323.541L392.367,305.589L367.692,280.913L367.692,303.637L385.448,321.394L380.227,326.615L367.692,314.08L367.692,334L360.308,334L360.308,314.08L347.773,326.615L342.552,321.394L360.308,303.637L360.308,280.913L335.633,305.589L335.633,323.541L328.249,323.541L328.249,307.751L312.459,307.751L312.459,300.367L330.411,300.367L355.087,275.692L332.529,275.692L314.773,293.448L309.552,288.227L322.087,275.692Z" style="fill:white;"/>
        </g>
        <g transform="matrix(0.176444,-0.0862434,0.0862434,0.176444,1753.57,1885.11)">
            <path d="M322.087,275.692L302,275.692L302,268.308L322.087,268.308L309.552,255.773L314.773,250.552L332.529,268.308L355.087,268.308L330.411,243.633L312.459,243.633L312.459,236.249L328.249,236.249L328.249,220.459L335.633,220.459L335.633,238.411L360.308,263.087L360.308,240.529L342.552,222.773L347.773,217.552L360.308,230.087L360.308,210L367.692,210L367.692,230.087L380.227,217.552L385.448,222.773L367.692,240.529L367.692,263.087L392.367,238.411L392.367,220.459L399.751,220.459L399.751,236.249L415.541,236.249L415.541,243.633L397.589,243.633L372.913,268.308L395.637,268.308L413.227,250.718L418.448,255.94L406.08,268.308L426,268.308L426,275.692L405.747,275.692L418.448,288.394L413.227,293.615L395.304,275.692L372.913,275.692L397.589,300.367L415.541,300.367L415.541,307.751L399.751,307.751L399.751,323.541L392.367,323.541L392.367,305.589L367.692,280.913L367.692,303.637L385.448,321.394L380.227,326.615L367.692,314.08L367.692,334L360.308,334L360.308,314.08L347.773,326.615L342.552,321.394L360.308,303.637L360.308,280.913L335.633,305.589L335.633,323.541L328.249,323.541L328.249,307.751L312.459,307.751L312.459,300.367L330.411,300.367L355.087,275.692L332.529,275.692L314.773,293.448L309.552,288.227L322.087,275.692Z" style="fill:white;"/>
        </g>
        <g transform="matrix(0.176444,-0.0862434,0.0862434,0.176444,1378.57,1524.17)">
            <path d="M322.087,275.692L302,275.692L302,268.308L322.087,268.308L309.552,255.773L314.773,250.552L332.529,268.308L355.087,268.308L330.411,243.633L312.459,243.633L312.459,236.249L328.249,236.249L328.249,220.459L335.633,220.459L335.633,238.411L360.308,263.087L360.308,240.529L342.552,222.773L347.773,217.552L360.308,230.087L360.308,210L367.692,210L367.692,230.087L380.227,217.552L385.448,222.773L367.692,240.529L367.692,263.087L392.367,238.411L392.367,220.459L399.751,220.459L399.751,236.249L415.541,236.249L415.541,243.633L397.589,243.633L372.913,268.308L395.637,268.308L413.227,250.718L418.448,255.94L406.08,268.308L426,268.308L426,275.692L405.747,275.692L418.448,288.394L413.227,293.615L395.304,275.692L372.913,275.692L397.589,300.367L415.541,300.367L415.541,307.751L399.751,307.751L399.751,323.541L392.367,323.541L392.367,305.589L367.692,280.913L367.692,303.637L385.448,321.394L380.227,326.615L367.692,314.08L367.692,334L360.308,334L360.308,314.08L347.773,326.615L342.552,321.394L360.308,303.637L360.308,280.913L335.633,305.589L335.633,323.541L328.249,323.541L328.249,307.751L312.459,307.751L312.459,300.367L330.411,300.367L355.087,275.692L332.529,275.692L314.773,293.448L309.552,288.227L322.087,275.692Z" style="fill:white;"/>
        </g>
        <g transform="matrix(0.17473,0.0380152,-0.0380152,0.17473,1021.74,1748.26)">
            <path d="M321.21,276.055L302,276.055L302,267.945L321.21,267.945L309.295,256.03L315.03,250.295L332.68,267.945L354.21,267.945L317.292,231.027L323.027,225.292L359.945,262.21L359.945,240.68L342.295,223.03L348.03,217.295L359.945,229.21L359.945,210L368.055,210L368.055,229.21L379.97,217.295L385.705,223.03L368.055,240.68L368.055,262.21L404.973,225.292L410.708,231.027L373.79,267.945L395.487,267.945L412.97,250.462L418.705,256.196L406.956,267.945L426,267.945L426,276.055L406.623,276.055L418.705,288.137L412.97,293.872L395.154,276.055L373.79,276.055L410.708,312.973L404.973,318.708L368.055,281.79L368.055,303.487L385.705,321.137L379.97,326.872L368.055,314.956L368.055,334L359.945,334L359.945,314.956L348.03,326.872L342.295,321.137L359.945,303.487L359.945,281.79L323.027,318.708L317.292,312.973L354.21,276.055L332.68,276.055L315.03,293.705L309.295,287.97L321.21,276.055Z" style="fill:white;"/>
        </g>
        <g transform="matrix(0.17473,0.0380152,-0.0380152,0.17473,1155.49,1348.26)">
            <path d="M321.21,276.055L302,276.055L302,267.945L321.21,267.945L309.295,256.03L315.03,250.295L332.68,267.945L354.21,267.945L317.292,231.027L323.027,225.292L359.945,262.21L359.945,240.68L342.295,223.03L348.03,217.295L359.945,229.21L359.945,210L368.055,210L368.055,229.21L379.97,217.295L385.705,223.03L368.055,240.68L368.055,262.21L404.973,225.292L410.708,231.027L373.79,267.945L395.487,267.945L412.97,250.462L418.705,256.196L406.956,267.945L426,267.945L426,276.055L406.623,276.055L418.705,288.137L412.97,293.872L395.154,276.055L373.79,276.055L410.708,312.973L404.973,318.708L368.055,281.79L368.055,303.487L385.705,321.137L379.97,326.872L368.055,314.956L368.055,334L359.945,334L359.945,314.956L348.03,326.872L342.295,321.137L359.945,303.487L359.945,281.79L323.027,318.708L317.292,312.973L354.21,276.055L332.68,276.055L315.03,293.705L309.295,287.97L321.21,276.055Z" style="fill:white;"/>
        </g>
        <g transform="matrix(0.17473,0.0380152,-0.0380152,0.17473,80.4892,1737.27)">
            <path d="M321.21,276.055L302,276.055L302,267.945L321.21,267.945L309.295,256.03L315.03,250.295L332.68,267.945L354.21,267.945L317.292,231.027L323.027,225.292L359.945,262.21L359.945,240.68L342.295,223.03L348.03,217.295L359.945,229.21L359.945,210L368.055,210L368.055,229.21L379.97,217.295L385.705,223.03L368.055,240.68L368.055,262.21L404.973,225.292L410.708,231.027L373.79,267.945L395.487,267.945L412.97,250.462L418.705,256.196L406.956,267.945L426,267.945L426,276.055L406.623,276.055L418.705,288.137L412.97,293.872L395.154,276.055L373.79,276.055L410.708,312.973L404.973,318.708L368.055,281.79L368.055,303.487L385.705,321.137L379.97,326.872L368.055,314.956L368.055,334L359.945,334L359.945,314.956L348.03,326.872L342.295,321.137L359.945,303.487L359.945,281.79L323.027,318.708L317.292,312.973L354.21,276.055L332.68,276.055L315.03,293.705L309.295,287.97L321.21,276.055Z" style="fill:white;"/>
        </g>
        <g transform="matrix(0.17473,0.0380152,-0.0380152,0.17473,1575.8,1690.4)">
            <path d="M321.21,276.055L302,276.055L302,267.945L321.21,267.945L309.295,256.03L315.03,250.295L332.68,267.945L354.21,267.945L317.292,231.027L323.027,225.292L359.945,262.21L359.945,240.68L342.295,223.03L348.03,217.295L359.945,229.21L359.945,210L368.055,210L368.055,229.21L379.97,217.295L385.705,223.03L368.055,240.68L368.055,262.21L404.973,225.292L410.708,231.027L373.79,267.945L395.487,267.945L412.97,250.462L418.705,256.196L406.956,267.945L426,267.945L426,276.055L406.623,276.055L418.705,288.137L412.97,293.872L395.154,276.055L373.79,276.055L410.708,312.973L404.973,318.708L368.055,281.79L368.055,303.487L385.705,321.137L379.97,326.872L368.055,314.956L368.055,334L359.945,334L359.945,314.956L348.03,326.872L342.295,321.137L359.945,303.487L359.945,281.79L323.027,318.708L317.292,312.973L354.21,276.055L332.68,276.055L315.03,293.705L309.295,287.97L321.21,276.055Z" style="fill:white;"/>
        </g>
        <g transform="matrix(0.17473,0.0380152,-0.0380152,0.17473,1814.86,1141.96)">
            <path d="M321.21,276.055L302,276.055L302,267.945L321.21,267.945L309.295,256.03L315.03,250.295L332.68,267.945L354.21,267.945L317.292,231.027L323.027,225.292L359.945,262.21L359.945,240.68L342.295,223.03L348.03,217.295L359.945,229.21L359.945,210L368.055,210L368.055,229.21L379.97,217.295L385.705,223.03L368.055,240.68L368.055,262.21L404.973,225.292L410.708,231.027L373.79,267.945L395.487,267.945L412.97,250.462L418.705,256.196L406.956,267.945L426,267.945L426,276.055L406.623,276.055L418.705,288.137L412.97,293.872L395.154,276.055L373.79,276.055L410.708,312.973L404.973,318.708L368.055,281.79L368.055,303.487L385.705,321.137L379.97,326.872L368.055,314.956L368.055,334L359.945,334L359.945,314.956L348.03,326.872L342.295,321.137L359.945,303.487L359.945,281.79L323.027,318.708L317.292,312.973L354.21,276.055L332.68,276.055L315.03,293.705L309.295,287.97L321.21,276.055Z" style="fill:white;"/>
        </g>
        <g transform="matrix(0.17473,0.0380152,-0.0380152,0.17473,778.926,1088.84)">
            <path d="M321.21,276.055L302,276.055L302,267.945L321.21,267.945L309.295,256.03L315.03,250.295L332.68,267.945L354.21,267.945L317.292,231.027L323.027,225.292L359.945,262.21L359.945,240.68L342.295,223.03L348.03,217.295L359.945,229.21L359.945,210L368.055,210L368.055,229.21L379.97,217.295L385.705,223.03L368.055,240.68L368.055,262.21L404.973,225.292L410.708,231.027L373.79,267.945L395.487,267.945L412.97,250.462L418.705,256.196L406.956,267.945L426,267.945L426,276.055L406.623,276.055L418.705,288.137L412.97,293.872L395.154,276.055L373.79,276.055L410.708,312.973L404.973,318.708L368.055,281.79L368.055,303.487L385.705,321.137L379.97,326.872L368.055,314.956L368.055,334L359.945,334L359.945,314.956L348.03,326.872L342.295,321.137L359.945,303.487L359.945,281.79L323.027,318.708L317.292,312.973L354.21,276.055L332.68,276.055L315.03,293.705L309.295,287.97L321.21,276.055Z" style="fill:white;"/>
        </g>
        <g transform="matrix(0.17473,0.0380152,-0.0380152,0.17473,439.864,1987.27)">
            <path d="M321.21,276.055L302,276.055L302,267.945L321.21,267.945L309.295,256.03L315.03,250.295L332.68,267.945L354.21,267.945L317.292,231.027L323.027,225.292L359.945,262.21L359.945,240.68L342.295,223.03L348.03,217.295L359.945,229.21L359.945,210L368.055,210L368.055,229.21L379.97,217.295L385.705,223.03L368.055,240.68L368.055,262.21L404.973,225.292L410.708,231.027L373.79,267.945L395.487,267.945L412.97,250.462L418.705,256.196L406.956,267.945L426,267.945L426,276.055L406.623,276.055L418.705,288.137L412.97,293.872L395.154,276.055L373.79,276.055L410.708,312.973L404.973,318.708L368.055,281.79L368.055,303.487L385.705,321.137L379.97,326.872L368.055,314.956L368.055,334L359.945,334L359.945,314.956L348.03,326.872L342.295,321.137L359.945,303.487L359.945,281.79L323.027,318.708L317.292,312.973L354.21,276.055L332.68,276.055L315.03,293.705L309.295,287.97L321.21,276.055Z" style="fill:white;"/>
        </g>
        <g transform="matrix(0.17473,0.0380152,-0.0380152,0.17473,1264.86,1959.15)">
            <path d="M321.21,276.055L302,276.055L302,267.945L321.21,267.945L309.295,256.03L315.03,250.295L332.68,267.945L354.21,267.945L317.292,231.027L323.027,225.292L359.945,262.21L359.945,240.68L342.295,223.03L348.03,217.295L359.945,229.21L359.945,210L368.055,210L368.055,229.21L379.97,217.295L385.705,223.03L368.055,240.68L368.055,262.21L404.973,225.292L410.708,231.027L373.79,267.945L395.487,267.945L412.97,250.462L418.705,256.196L406.956,267.945L426,267.945L426,276.055L406.623,276.055L418.705,288.137L412.97,293.872L395.154,276.055L373.79,276.055L410.708,312.973L404.973,318.708L368.055,281.79L368.055,303.487L385.705,321.137L379.97,326.872L368.055,314.956L368.055,334L359.945,334L359.945,314.956L348.03,326.872L342.295,321.137L359.945,303.487L359.945,281.79L323.027,318.708L317.292,312.973L354.21,276.055L332.68,276.055L315.03,293.705L309.295,287.97L321.21,276.055Z" style="fill:white;"/>
        </g>
        <g transform="matrix(0.176444,-0.0862434,0.0862434,0.176444,5.12938,2056.98)">
            <path d="M322.087,275.692L302,275.692L302,268.308L322.087,268.308L309.552,255.773L314.773,250.552L332.529,268.308L355.087,268.308L330.411,243.633L312.459,243.633L312.459,236.249L328.249,236.249L328.249,220.459L335.633,220.459L335.633,238.411L360.308,263.087L360.308,240.529L342.552,222.773L347.773,217.552L360.308,230.087L360.308,210L367.692,210L367.692,230.087L380.227,217.552L385.448,222.773L367.692,240.529L367.692,263.087L392.367,238.411L392.367,220.459L399.751,220.459L399.751,236.249L415.541,236.249L415.541,243.633L397.589,243.633L372.913,268.308L395.637,268.308L413.227,250.718L418.448,255.94L406.08,268.308L426,268.308L426,275.692L405.747,275.692L418.448,288.394L413.227,293.615L395.304,275.692L372.913,275.692L397.589,300.367L415.541,300.367L415.541,307.751L399.751,307.751L399.751,323.541L392.367,323.541L392.367,305.589L367.692,280.913L367.692,303.637L385.448,321.394L380.227,326.615L367.692,314.08L367.692,334L360.308,334L360.308,314.08L347.773,326.615L342.552,321.394L360.308,303.637L360.308,280.913L335.633,305.589L335.633,323.541L328.249,323.541L328.249,307.751L312.459,307.751L312.459,300.367L330.411,300.367L355.087,275.692L332.529,275.692L314.773,293.448L309.552,288.227L322.087,275.692Z" style="fill:white;"/>
        </g>
        <g transform="matrix(0.145491,-0.0274298,0.0274298,0.145491,97.2398,125.541)">
            <path d="M304.029,276.898L286.625,294.301L279.699,287.375C279.699,287.375 295.074,272 295.074,272L279.699,256.625L286.625,249.699L304.029,267.102L319.176,267.102L308.699,256.625L315.625,249.699L333.029,267.102L352.176,267.102L318.131,233.057L294.941,233.057L294.941,223.262C294.941,223.262 316.684,223.262 316.684,223.262L316.684,201.519L326.479,201.519L326.479,227.553L359.102,260.176L359.102,241.029L341.699,223.625L348.625,216.699C348.625,216.699 354.602,222.676 359.102,227.176L359.102,212.029L341.699,194.625L348.625,187.699C348.625,187.699 364,203.074 364,203.074L379.375,187.699L386.301,194.625L368.898,212.029L368.898,227.176L379.375,216.699L386.301,223.625L368.898,241.029L368.898,260.176L402.943,226.131L402.943,201.519L412.738,201.519C412.738,201.519 412.738,223.262 412.738,223.262L434.481,223.262L434.481,233.057L409.869,233.057L375.824,267.102L395.138,267.102L412.375,249.866L419.301,256.792C419.301,256.792 413.47,262.622 408.99,267.102L423.971,267.102L441.375,249.699L448.301,256.625C448.301,256.625 432.926,272 432.926,272L448.301,287.375L441.375,294.301L423.971,276.898L408.657,276.898L419.301,287.541L412.375,294.468L394.805,276.898L375.824,276.898L409.869,310.943L434.481,310.943L434.481,320.738C434.481,320.738 412.738,320.738 412.738,320.738L412.738,342.481L402.943,342.481L402.943,317.869L368.898,283.824L368.898,303.138L386.301,320.541L379.375,327.468C379.375,327.468 373.398,321.491 368.898,316.99L368.898,332.138L386.301,349.541L379.375,356.468C379.375,356.468 364,341.093 364,341.093L348.625,356.468L341.699,349.541L359.102,332.138L359.102,316.99L348.625,327.468L341.699,320.541L359.102,303.138L359.102,283.824L325.057,317.869L325.057,342.481L315.262,342.481C315.262,342.481 315.262,320.738 315.262,320.738L293.519,320.738L293.519,310.943L318.131,310.943L352.176,276.898L333.029,276.898L315.625,294.301L308.699,287.375C308.699,287.375 314.676,281.398 319.176,276.898L304.029,276.898Z" style="fill:white;"/>
        </g>
        <g transform="matrix(0.145491,-0.0274298,0.0274298,0.145491,598.802,638.041)">
            <path d="M304.029,276.898L286.625,294.301L279.699,287.375C279.699,287.375 295.074,272 295.074,272L279.699,256.625L286.625,249.699L304.029,267.102L319.176,267.102L308.699,256.625L315.625,249.699L333.029,267.102L352.176,267.102L318.131,233.057L294.941,233.057L294.941,223.262C294.941,223.262 316.684,223.262 316.684,223.262L316.684,201.519L326.479,201.519L326.479,227.553L359.102,260.176L359.102,241.029L341.699,223.625L348.625,216.699C348.625,216.699 354.602,222.676 359.102,227.176L359.102,212.029L341.699,194.625L348.625,187.699C348.625,187.699 364,203.074 364,203.074L379.375,187.699L386.301,194.625L368.898,212.029L368.898,227.176L379.375,216.699L386.301,223.625L368.898,241.029L368.898,260.176L402.943,226.131L402.943,201.519L412.738,201.519C412.738,201.519 412.738,223.262 412.738,223.262L434.481,223.262L434.481,233.057L409.869,233.057L375.824,267.102L395.138,267.102L412.375,249.866L419.301,256.792C419.301,256.792 413.47,262.622 408.99,267.102L423.971,267.102L441.375,249.699L448.301,256.625C448.301,256.625 432.926,272 432.926,272L448.301,287.375L441.375,294.301L423.971,276.898L408.657,276.898L419.301,287.541L412.375,294.468L394.805,276.898L375.824,276.898L409.869,310.943L434.481,310.943L434.481,320.738C434.481,320.738 412.738,320.738 412.738,320.738L412.738,342.481L402.943,342.481L402.943,317.869L368.898,283.824L368.898,303.138L386.301,320.541L379.375,327.468C379.375,327.468 373.398,321.491 368.898,316.99L368.898,332.138L386.301,349.541L379.375,356.468C379.375,356.468 364,341.093 364,341.093L348.625,356.468L341.699,349.541L359.102,332.138L359.102,316.99L348.625,327.468L341.699,320.541L359.102,303.138L359.102,283.824L325.057,317.869L325.057,342.481L315.262,342.481C315.262,342.481 315.262,320.738 315.262,320.738L293.519,320.738L293.519,310.943L318.131,310.943L352.176,276.898L333.029,276.898L315.625,294.301L308.699,287.375C308.699,287.375 314.676,281.398 319.176,276.898L304.029,276.898Z" style="fill:white;"/>
        </g>
        <g transform="matrix(0.145491,-0.0274298,0.0274298,0.145491,1634.74,366.166)">
            <path d="M304.029,276.898L286.625,294.301L279.699,287.375C279.699,287.375 295.074,272 295.074,272L279.699,256.625L286.625,249.699L304.029,267.102L319.176,267.102L308.699,256.625L315.625,249.699L333.029,267.102L352.176,267.102L318.131,233.057L294.941,233.057L294.941,223.262C294.941,223.262 316.684,223.262 316.684,223.262L316.684,201.519L326.479,201.519L326.479,227.553L359.102,260.176L359.102,241.029L341.699,223.625L348.625,216.699C348.625,216.699 354.602,222.676 359.102,227.176L359.102,212.029L341.699,194.625L348.625,187.699C348.625,187.699 364,203.074 364,203.074L379.375,187.699L386.301,194.625L368.898,212.029L368.898,227.176L379.375,216.699L386.301,223.625L368.898,241.029L368.898,260.176L402.943,226.131L402.943,201.519L412.738,201.519C412.738,201.519 412.738,223.262 412.738,223.262L434.481,223.262L434.481,233.057L409.869,233.057L375.824,267.102L395.138,267.102L412.375,249.866L419.301,256.792C419.301,256.792 413.47,262.622 408.99,267.102L423.971,267.102L441.375,249.699L448.301,256.625C448.301,256.625 432.926,272 432.926,272L448.301,287.375L441.375,294.301L423.971,276.898L408.657,276.898L419.301,287.541L412.375,294.468L394.805,276.898L375.824,276.898L409.869,310.943L434.481,310.943L434.481,320.738C434.481,320.738 412.738,320.738 412.738,320.738L412.738,342.481L402.943,342.481L402.943,317.869L368.898,283.824L368.898,303.138L386.301,320.541L379.375,327.468C379.375,327.468 373.398,321.491 368.898,316.99L368.898,332.138L386.301,349.541L379.375,356.468C379.375,356.468 364,341.093 364,341.093L348.625,356.468L341.699,349.541L359.102,332.138L359.102,316.99L348.625,327.468L341.699,320.541L359.102,303.138L359.102,283.824L325.057,317.869L325.057,342.481L315.262,342.481C315.262,342.481 315.262,320.738 315.262,320.738L293.519,320.738L293.519,310.943L318.131,310.943L352.176,276.898L333.029,276.898L315.625,294.301L308.699,287.375C308.699,287.375 314.676,281.398 319.176,276.898L304.029,276.898Z" style="fill:white;"/>
        </g>
        <g transform="matrix(0.145491,-0.0274298,0.0274298,0.145491,1062.86,98.9784)">
            <path d="M304.029,276.898L286.625,294.301L279.699,287.375C279.699,287.375 295.074,272 295.074,272L279.699,256.625L286.625,249.699L304.029,267.102L319.176,267.102L308.699,256.625L315.625,249.699L333.029,267.102L352.176,267.102L318.131,233.057L294.941,233.057L294.941,223.262C294.941,223.262 316.684,223.262 316.684,223.262L316.684,201.519L326.479,201.519L326.479,227.553L359.102,260.176L359.102,241.029L341.699,223.625L348.625,216.699C348.625,216.699 354.602,222.676 359.102,227.176L359.102,212.029L341.699,194.625L348.625,187.699C348.625,187.699 364,203.074 364,203.074L379.375,187.699L386.301,194.625L368.898,212.029L368.898,227.176L379.375,216.699L386.301,223.625L368.898,241.029L368.898,260.176L402.943,226.131L402.943,201.519L412.738,201.519C412.738,201.519 412.738,223.262 412.738,223.262L434.481,223.262L434.481,233.057L409.869,233.057L375.824,267.102L395.138,267.102L412.375,249.866L419.301,256.792C419.301,256.792 413.47,262.622 408.99,267.102L423.971,267.102L441.375,249.699L448.301,256.625C448.301,256.625 432.926,272 432.926,272L448.301,287.375L441.375,294.301L423.971,276.898L408.657,276.898L419.301,287.541L412.375,294.468L394.805,276.898L375.824,276.898L409.869,310.943L434.481,310.943L434.481,320.738C434.481,320.738 412.738,320.738 412.738,320.738L412.738,342.481L402.943,342.481L402.943,317.869L368.898,283.824L368.898,303.138L386.301,320.541L379.375,327.468C379.375,327.468 373.398,321.491 368.898,316.99L368.898,332.138L386.301,349.541L379.375,356.468C379.375,356.468 364,341.093 364,341.093L348.625,356.468L341.699,349.541L359.102,332.138L359.102,316.99L348.625,327.468L341.699,320.541L359.102,303.138L359.102,283.824L325.057,317.869L325.057,342.481L315.262,342.481C315.262,342.481 315.262,320.738 315.262,320.738L293.519,320.738L293.519,310.943L318.131,310.943L352.176,276.898L333.029,276.898L315.625,294.301L308.699,287.375C308.699,287.375 314.676,281.398 319.176,276.898L304.029,276.898Z" style="fill:white;"/>
        </g>
        <g transform="matrix(0.145491,-0.0274298,0.0274298,0.145491,1180.05,548.978)">
            <path d="M304.029,276.898L286.625,294.301L279.699,287.375C279.699,287.375 295.074,272 295.074,272L279.699,256.625L286.625,249.699L304.029,267.102L319.176,267.102L308.699,256.625L315.625,249.699L333.029,267.102L352.176,267.102L318.131,233.057L294.941,233.057L294.941,223.262C294.941,223.262 316.684,223.262 316.684,223.262L316.684,201.519L326.479,201.519L326.479,227.553L359.102,260.176L359.102,241.029L341.699,223.625L348.625,216.699C348.625,216.699 354.602,222.676 359.102,227.176L359.102,212.029L341.699,194.625L348.625,187.699C348.625,187.699 364,203.074 364,203.074L379.375,187.699L386.301,194.625L368.898,212.029L368.898,227.176L379.375,216.699L386.301,223.625L368.898,241.029L368.898,260.176L402.943,226.131L402.943,201.519L412.738,201.519C412.738,201.519 412.738,223.262 412.738,223.262L434.481,223.262L434.481,233.057L409.869,233.057L375.824,267.102L395.138,267.102L412.375,249.866L419.301,256.792C419.301,256.792 413.47,262.622 408.99,267.102L423.971,267.102L441.375,249.699L448.301,256.625C448.301,256.625 432.926,272 432.926,272L448.301,287.375L441.375,294.301L423.971,276.898L408.657,276.898L419.301,287.541L412.375,294.468L394.805,276.898L375.824,276.898L409.869,310.943L434.481,310.943L434.481,320.738C434.481,320.738 412.738,320.738 412.738,320.738L412.738,342.481L402.943,342.481L402.943,317.869L368.898,283.824L368.898,303.138L386.301,320.541L379.375,327.468C379.375,327.468 373.398,321.491 368.898,316.99L368.898,332.138L386.301,349.541L379.375,356.468C379.375,356.468 364,341.093 364,341.093L348.625,356.468L341.699,349.541L359.102,332.138L359.102,316.99L348.625,327.468L341.699,320.541L359.102,303.138L359.102,283.824L325.057,317.869L325.057,342.481L315.262,342.481C315.262,342.481 315.262,320.738 315.262,320.738L293.519,320.738L293.519,310.943L318.131,310.943L352.176,276.898L333.029,276.898L315.625,294.301L308.699,287.375C308.699,287.375 314.676,281.398 319.176,276.898L304.029,276.898Z" style="fill:white;"/>
        </g>
        <g transform="matrix(0.145491,-0.0274298,0.0274298,0.145491,603.49,259.916)">
            <path d="M304.029,276.898L286.625,294.301L279.699,287.375C279.699,287.375 295.074,272 295.074,272L279.699,256.625L286.625,249.699L304.029,267.102L319.176,267.102L308.699,256.625L315.625,249.699L333.029,267.102L352.176,267.102L318.131,233.057L294.941,233.057L294.941,223.262C294.941,223.262 316.684,223.262 316.684,223.262L316.684,201.519L326.479,201.519L326.479,227.553L359.102,260.176L359.102,241.029L341.699,223.625L348.625,216.699C348.625,216.699 354.602,222.676 359.102,227.176L359.102,212.029L341.699,194.625L348.625,187.699C348.625,187.699 364,203.074 364,203.074L379.375,187.699L386.301,194.625L368.898,212.029L368.898,227.176L379.375,216.699L386.301,223.625L368.898,241.029L368.898,260.176L402.943,226.131L402.943,201.519L412.738,201.519C412.738,201.519 412.738,223.262 412.738,223.262L434.481,223.262L434.481,233.057L409.869,233.057L375.824,267.102L395.138,267.102L412.375,249.866L419.301,256.792C419.301,256.792 413.47,262.622 408.99,267.102L423.971,267.102L441.375,249.699L448.301,256.625C448.301,256.625 432.926,272 432.926,272L448.301,287.375L441.375,294.301L423.971,276.898L408.657,276.898L419.301,287.541L412.375,294.468L394.805,276.898L375.824,276.898L409.869,310.943L434.481,310.943L434.481,320.738C434.481,320.738 412.738,320.738 412.738,320.738L412.738,342.481L402.943,342.481L402.943,317.869L368.898,283.824L368.898,303.138L386.301,320.541L379.375,327.468C379.375,327.468 373.398,321.491 368.898,316.99L368.898,332.138L386.301,349.541L379.375,356.468C379.375,356.468 364,341.093 364,341.093L348.625,356.468L341.699,349.541L359.102,332.138L359.102,316.99L348.625,327.468L341.699,320.541L359.102,303.138L359.102,283.824L325.057,317.869L325.057,342.481L315.262,342.481C315.262,342.481 315.262,320.738 315.262,320.738L293.519,320.738L293.519,310.943L318.131,310.943L352.176,276.898L333.029,276.898L315.625,294.301L308.699,287.375C308.699,287.375 314.676,281.398 319.176,276.898L304.029,276.898Z" style="fill:white;"/>
        </g>
        <g transform="matrix(0.145491,-0.0274298,0.0274298,0.145491,265.99,847.416)">
            <path d="M304.029,276.898L286.625,294.301L279.699,287.375C279.699,287.375 295.074,272 295.074,272L279.699,256.625L286.625,249.699L304.029,267.102L319.176,267.102L308.699,256.625L315.625,249.699L333.029,267.102L352.176,267.102L318.131,233.057L294.941,233.057L294.941,223.262C294.941,223.262 316.684,223.262 316.684,223.262L316.684,201.519L326.479,201.519L326.479,227.553L359.102,260.176L359.102,241.029L341.699,223.625L348.625,216.699C348.625,216.699 354.602,222.676 359.102,227.176L359.102,212.029L341.699,194.625L348.625,187.699C348.625,187.699 364,203.074 364,203.074L379.375,187.699L386.301,194.625L368.898,212.029L368.898,227.176L379.375,216.699L386.301,223.625L368.898,241.029L368.898,260.176L402.943,226.131L402.943,201.519L412.738,201.519C412.738,201.519 412.738,223.262 412.738,223.262L434.481,223.262L434.481,233.057L409.869,233.057L375.824,267.102L395.138,267.102L412.375,249.866L419.301,256.792C419.301,256.792 413.47,262.622 408.99,267.102L423.971,267.102L441.375,249.699L448.301,256.625C448.301,256.625 432.926,272 432.926,272L448.301,287.375L441.375,294.301L423.971,276.898L408.657,276.898L419.301,287.541L412.375,294.468L394.805,276.898L375.824,276.898L409.869,310.943L434.481,310.943L434.481,320.738C434.481,320.738 412.738,320.738 412.738,320.738L412.738,342.481L402.943,342.481L402.943,317.869L368.898,283.824L368.898,303.138L386.301,320.541L379.375,327.468C379.375,327.468 373.398,321.491 368.898,316.99L368.898,332.138L386.301,349.541L379.375,356.468C379.375,356.468 364,341.093 364,341.093L348.625,356.468L341.699,349.541L359.102,332.138L359.102,316.99L348.625,327.468L341.699,320.541L359.102,303.138L359.102,283.824L325.057,317.869L325.057,342.481L315.262,342.481C315.262,342.481 315.262,320.738 315.262,320.738L293.519,320.738L293.519,310.943L318.131,310.943L352.176,276.898L333.029,276.898L315.625,294.301L308.699,287.375C308.699,287.375 314.676,281.398 319.176,276.898L304.029,276.898Z" style="fill:white;"/>
        </g>
        <g transform="matrix(0.145491,-0.0274298,0.0274298,0.145491,705.052,1000.54)">
            <path d="M304.029,276.898L286.625,294.301L279.699,287.375C279.699,287.375 295.074,272 295.074,272L279.699,256.625L286.625,249.699L304.029,267.102L319.176,267.102L308.699,256.625L315.625,249.699L333.029,267.102L352.176,267.102L318.131,233.057L294.941,233.057L294.941,223.262C294.941,223.262 316.684,223.262 316.684,223.262L316.684,201.519L326.479,201.519L326.479,227.553L359.102,260.176L359.102,241.029L341.699,223.625L348.625,216.699C348.625,216.699 354.602,222.676 359.102,227.176L359.102,212.029L341.699,194.625L348.625,187.699C348.625,187.699 364,203.074 364,203.074L379.375,187.699L386.301,194.625L368.898,212.029L368.898,227.176L379.375,216.699L386.301,223.625L368.898,241.029L368.898,260.176L402.943,226.131L402.943,201.519L412.738,201.519C412.738,201.519 412.738,223.262 412.738,223.262L434.481,223.262L434.481,233.057L409.869,233.057L375.824,267.102L395.138,267.102L412.375,249.866L419.301,256.792C419.301,256.792 413.47,262.622 408.99,267.102L423.971,267.102L441.375,249.699L448.301,256.625C448.301,256.625 432.926,272 432.926,272L448.301,287.375L441.375,294.301L423.971,276.898L408.657,276.898L419.301,287.541L412.375,294.468L394.805,276.898L375.824,276.898L409.869,310.943L434.481,310.943L434.481,320.738C434.481,320.738 412.738,320.738 412.738,320.738L412.738,342.481L402.943,342.481L402.943,317.869L368.898,283.824L368.898,303.138L386.301,320.541L379.375,327.468C379.375,327.468 373.398,321.491 368.898,316.99L368.898,332.138L386.301,349.541L379.375,356.468C379.375,356.468 364,341.093 364,341.093L348.625,356.468L341.699,349.541L359.102,332.138L359.102,316.99L348.625,327.468L341.699,320.541L359.102,303.138L359.102,283.824L325.057,317.869L325.057,342.481L315.262,342.481C315.262,342.481 315.262,320.738 315.262,320.738L293.519,320.738L293.519,310.943L318.131,310.943L352.176,276.898L333.029,276.898L315.625,294.301L308.699,287.375C308.699,287.375 314.676,281.398 319.176,276.898L304.029,276.898Z" style="fill:white;"/>
        </g>
        <g transform="matrix(0.145491,-0.0274298,0.0274298,0.145491,1497.24,897.416)">
            <path d="M304.029,276.898L286.625,294.301L279.699,287.375C279.699,287.375 295.074,272 295.074,272L279.699,256.625L286.625,249.699L304.029,267.102L319.176,267.102L308.699,256.625L315.625,249.699L333.029,267.102L352.176,267.102L318.131,233.057L294.941,233.057L294.941,223.262C294.941,223.262 316.684,223.262 316.684,223.262L316.684,201.519L326.479,201.519L326.479,227.553L359.102,260.176L359.102,241.029L341.699,223.625L348.625,216.699C348.625,216.699 354.602,222.676 359.102,227.176L359.102,212.029L341.699,194.625L348.625,187.699C348.625,187.699 364,203.074 364,203.074L379.375,187.699L386.301,194.625L368.898,212.029L368.898,227.176L379.375,216.699L386.301,223.625L368.898,241.029L368.898,260.176L402.943,226.131L402.943,201.519L412.738,201.519C412.738,201.519 412.738,223.262 412.738,223.262L434.481,223.262L434.481,233.057L409.869,233.057L375.824,267.102L395.138,267.102L412.375,249.866L419.301,256.792C419.301,256.792 413.47,262.622 408.99,267.102L423.971,267.102L441.375,249.699L448.301,256.625C448.301,256.625 432.926,272 432.926,272L448.301,287.375L441.375,294.301L423.971,276.898L408.657,276.898L419.301,287.541L412.375,294.468L394.805,276.898L375.824,276.898L409.869,310.943L434.481,310.943L434.481,320.738C434.481,320.738 412.738,320.738 412.738,320.738L412.738,342.481L402.943,342.481L402.943,317.869L368.898,283.824L368.898,303.138L386.301,320.541L379.375,327.468C379.375,327.468 373.398,321.491 368.898,316.99L368.898,332.138L386.301,349.541L379.375,356.468C379.375,356.468 364,341.093 364,341.093L348.625,356.468L341.699,349.541L359.102,332.138L359.102,316.99L348.625,327.468L341.699,320.541L359.102,303.138L359.102,283.824L325.057,317.869L325.057,342.481L315.262,342.481C315.262,342.481 315.262,320.738 315.262,320.738L293.519,320.738L293.519,310.943L318.131,310.943L352.176,276.898L333.029,276.898L315.625,294.301L308.699,287.375C308.699,287.375 314.676,281.398 319.176,276.898L304.029,276.898Z" style="fill:white;"/>
        </g>
        <g transform="matrix(0.145491,-0.0274298,0.0274298,0.145491,1522.24,111.478)">
            <path d="M304.029,276.898L286.625,294.301L279.699,287.375C279.699,287.375 295.074,272 295.074,272L279.699,256.625L286.625,249.699L304.029,267.102L319.176,267.102L308.699,256.625L315.625,249.699L333.029,267.102L352.176,267.102L318.131,233.057L294.941,233.057L294.941,223.262C294.941,223.262 316.684,223.262 316.684,223.262L316.684,201.519L326.479,201.519L326.479,227.553L359.102,260.176L359.102,241.029L341.699,223.625L348.625,216.699C348.625,216.699 354.602,222.676 359.102,227.176L359.102,212.029L341.699,194.625L348.625,187.699C348.625,187.699 364,203.074 364,203.074L379.375,187.699L386.301,194.625L368.898,212.029L368.898,227.176L379.375,216.699L386.301,223.625L368.898,241.029L368.898,260.176L402.943,226.131L402.943,201.519L412.738,201.519C412.738,201.519 412.738,223.262 412.738,223.262L434.481,223.262L434.481,233.057L409.869,233.057L375.824,267.102L395.138,267.102L412.375,249.866L419.301,256.792C419.301,256.792 413.47,262.622 408.99,267.102L423.971,267.102L441.375,249.699L448.301,256.625C448.301,256.625 432.926,272 432.926,272L448.301,287.375L441.375,294.301L423.971,276.898L408.657,276.898L419.301,287.541L412.375,294.468L394.805,276.898L375.824,276.898L409.869,310.943L434.481,310.943L434.481,320.738C434.481,320.738 412.738,320.738 412.738,320.738L412.738,342.481L402.943,342.481L402.943,317.869L368.898,283.824L368.898,303.138L386.301,320.541L379.375,327.468C379.375,327.468 373.398,321.491 368.898,316.99L368.898,332.138L386.301,349.541L379.375,356.468C379.375,356.468 364,341.093 364,341.093L348.625,356.468L341.699,349.541L359.102,332.138L359.102,316.99L348.625,327.468L341.699,320.541L359.102,303.138L359.102,283.824L325.057,317.869L325.057,342.481L315.262,342.481C315.262,342.481 315.262,320.738 315.262,320.738L293.519,320.738L293.519,310.943L318.131,310.943L352.176,276.898L333.029,276.898L315.625,294.301L308.699,287.375C308.699,287.375 314.676,281.398 319.176,276.898L304.029,276.898Z" style="fill:white;"/>
        </g>
        <g transform="matrix(0.145491,-0.0274298,0.0274298,0.145491,11.3024,500.541)">
            <path d="M304.029,276.898L286.625,294.301L279.699,287.375C279.699,287.375 295.074,272 295.074,272L279.699,256.625L286.625,249.699L304.029,267.102L319.176,267.102L308.699,256.625L315.625,249.699L333.029,267.102L352.176,267.102L318.131,233.057L294.941,233.057L294.941,223.262C294.941,223.262 316.684,223.262 316.684,223.262L316.684,201.519L326.479,201.519L326.479,227.553L359.102,260.176L359.102,241.029L341.699,223.625L348.625,216.699C348.625,216.699 354.602,222.676 359.102,227.176L359.102,212.029L341.699,194.625L348.625,187.699C348.625,187.699 364,203.074 364,203.074L379.375,187.699L386.301,194.625L368.898,212.029L368.898,227.176L379.375,216.699L386.301,223.625L368.898,241.029L368.898,260.176L402.943,226.131L402.943,201.519L412.738,201.519C412.738,201.519 412.738,223.262 412.738,223.262L434.481,223.262L434.481,233.057L409.869,233.057L375.824,267.102L395.138,267.102L412.375,249.866L419.301,256.792C419.301,256.792 413.47,262.622 408.99,267.102L423.971,267.102L441.375,249.699L448.301,256.625C448.301,256.625 432.926,272 432.926,272L448.301,287.375L441.375,294.301L423.971,276.898L408.657,276.898L419.301,287.541L412.375,294.468L394.805,276.898L375.824,276.898L409.869,310.943L434.481,310.943L434.481,320.738C434.481,320.738 412.738,320.738 412.738,320.738L412.738,342.481L402.943,342.481L402.943,317.869L368.898,283.824L368.898,303.138L386.301,320.541L379.375,327.468C379.375,327.468 373.398,321.491 368.898,316.99L368.898,332.138L386.301,349.541L379.375,356.468C379.375,356.468 364,341.093 364,341.093L348.625,356.468L341.699,349.541L359.102,332.138L359.102,316.99L348.625,327.468L341.699,320.541L359.102,303.138L359.102,283.824L325.057,317.869L325.057,342.481L315.262,342.481C315.262,342.481 315.262,320.738 315.262,320.738L293.519,320.738L293.519,310.943L318.131,310.943L352.176,276.898L333.029,276.898L315.625,294.301L308.699,287.375C308.699,287.375 314.676,281.398 319.176,276.898L304.029,276.898Z" style="fill:white;"/>
        </g>
        <g transform="matrix(0.176444,-0.0862434,0.0862434,0.176444,872.316,950.422)">
            <path d="M322.087,275.692L302,275.692L302,268.308L322.087,268.308L309.552,255.773L314.773,250.552L332.529,268.308L355.087,268.308L330.411,243.633L312.459,243.633L312.459,236.249L328.249,236.249L328.249,220.459L335.633,220.459L335.633,238.411L360.308,263.087L360.308,240.529L342.552,222.773L347.773,217.552L360.308,230.087L360.308,210L367.692,210L367.692,230.087L380.227,217.552L385.448,222.773L367.692,240.529L367.692,263.087L392.367,238.411L392.367,220.459L399.751,220.459L399.751,236.249L415.541,236.249L415.541,243.633L397.589,243.633L372.913,268.308L395.637,268.308L413.227,250.718L418.448,255.94L406.08,268.308L426,268.308L426,275.692L405.747,275.692L418.448,288.394L413.227,293.615L395.304,275.692L372.913,275.692L397.589,300.367L415.541,300.367L415.541,307.751L399.751,307.751L399.751,323.541L392.367,323.541L392.367,305.589L367.692,280.913L367.692,303.637L385.448,321.394L380.227,326.615L367.692,314.08L367.692,334L360.308,334L360.308,314.08L347.773,326.615L342.552,321.394L360.308,303.637L360.308,280.913L335.633,305.589L335.633,323.541L328.249,323.541L328.249,307.751L312.459,307.751L312.459,300.367L330.411,300.367L355.087,275.692L332.529,275.692L314.773,293.448L309.552,288.227L322.087,275.692Z" style="fill:white;"/>
        </g>
        <g transform="matrix(0.176444,-0.0862434,0.0862434,0.176444,283.254,614.484)">
            <path d="M322.087,275.692L302,275.692L302,268.308L322.087,268.308L309.552,255.773L314.773,250.552L332.529,268.308L355.087,268.308L330.411,243.633L312.459,243.633L312.459,236.249L328.249,236.249L328.249,220.459L335.633,220.459L335.633,238.411L360.308,263.087L360.308,240.529L342.552,222.773L347.773,217.552L360.308,230.087L360.308,210L367.692,210L367.692,230.087L380.227,217.552L385.448,222.773L367.692,240.529L367.692,263.087L392.367,238.411L392.367,220.459L399.751,220.459L399.751,236.249L415.541,236.249L415.541,243.633L397.589,243.633L372.913,268.308L395.637,268.308L413.227,250.718L418.448,255.94L406.08,268.308L426,268.308L426,275.692L405.747,275.692L418.448,288.394L413.227,293.615L395.304,275.692L372.913,275.692L397.589,300.367L415.541,300.367L415.541,307.751L399.751,307.751L399.751,323.541L392.367,323.541L392.367,305.589L367.692,280.913L367.692,303.637L385.448,321.394L380.227,326.615L367.692,314.08L367.692,334L360.308,334L360.308,314.08L347.773,326.615L342.552,321.394L360.308,303.637L360.308,280.913L335.633,305.589L335.633,323.541L328.249,323.541L328.249,307.751L312.459,307.751L312.459,300.367L330.411,300.367L355.087,275.692L332.529,275.692L314.773,293.448L309.552,288.227L322.087,275.692Z" style="fill:white;"/>
        </g>
        <g transform="matrix(0.176444,-0.0862434,0.0862434,0.176444,841.066,475.422)">
            <path d="M322.087,275.692L302,275.692L302,268.308L322.087,268.308L309.552,255.773L314.773,250.552L332.529,268.308L355.087,268.308L330.411,243.633L312.459,243.633L312.459,236.249L328.249,236.249L328.249,220.459L335.633,220.459L335.633,238.411L360.308,263.087L360.308,240.529L342.552,222.773L347.773,217.552L360.308,230.087L360.308,210L367.692,210L367.692,230.087L380.227,217.552L385.448,222.773L367.692,240.529L367.692,263.087L392.367,238.411L392.367,220.459L399.751,220.459L399.751,236.249L415.541,236.249L415.541,243.633L397.589,243.633L372.913,268.308L395.637,268.308L413.227,250.718L418.448,255.94L406.08,268.308L426,268.308L426,275.692L405.747,275.692L418.448,288.394L413.227,293.615L395.304,275.692L372.913,275.692L397.589,300.367L415.541,300.367L415.541,307.751L399.751,307.751L399.751,323.541L392.367,323.541L392.367,305.589L367.692,280.913L367.692,303.637L385.448,321.394L380.227,326.615L367.692,314.08L367.692,334L360.308,334L360.308,314.08L347.773,326.615L342.552,321.394L360.308,303.637L360.308,280.913L335.633,305.589L335.633,323.541L328.249,323.541L328.249,307.751L312.459,307.751L312.459,300.367L330.411,300.367L355.087,275.692L332.529,275.692L314.773,293.448L309.552,288.227L322.087,275.692Z" style="fill:white;"/>
        </g>
        <g transform="matrix(0.176444,-0.0862434,0.0862434,0.176444,414.504,120.735)">
            <path d="M322.087,275.692L302,275.692L302,268.308L322.087,268.308L309.552,255.773L314.773,250.552L332.529,268.308L355.087,268.308L330.411,243.633L312.459,243.633L312.459,236.249L328.249,236.249L328.249,220.459L335.633,220.459L335.633,238.411L360.308,263.087L360.308,240.529L342.552,222.773L347.773,217.552L360.308,230.087L360.308,210L367.692,210L367.692,230.087L380.227,217.552L385.448,222.773L367.692,240.529L367.692,263.087L392.367,238.411L392.367,220.459L399.751,220.459L399.751,236.249L415.541,236.249L415.541,243.633L397.589,243.633L372.913,268.308L395.637,268.308L413.227,250.718L418.448,255.94L406.08,268.308L426,268.308L426,275.692L405.747,275.692L418.448,288.394L413.227,293.615L395.304,275.692L372.913,275.692L397.589,300.367L415.541,300.367L415.541,307.751L399.751,307.751L399.751,323.541L392.367,323.541L392.367,305.589L367.692,280.913L367.692,303.637L385.448,321.394L380.227,326.615L367.692,314.08L367.692,334L360.308,334L360.308,314.08L347.773,326.615L342.552,321.394L360.308,303.637L360.308,280.913L335.633,305.589L335.633,323.541L328.249,323.541L328.249,307.751L312.459,307.751L312.459,300.367L330.411,300.367L355.087,275.692L332.529,275.692L314.773,293.448L309.552,288.227L322.087,275.692Z" style="fill:white;"/>
        </g>
        <g transform="matrix(0.176444,-0.0862434,0.0862434,0.176444,244.192,369.172)">
            <path d="M322.087,275.692L302,275.692L302,268.308L322.087,268.308L309.552,255.773L314.773,250.552L332.529,268.308L355.087,268.308L330.411,243.633L312.459,243.633L312.459,236.249L328.249,236.249L328.249,220.459L335.633,220.459L335.633,238.411L360.308,263.087L360.308,240.529L342.552,222.773L347.773,217.552L360.308,230.087L360.308,210L367.692,210L367.692,230.087L380.227,217.552L385.448,222.773L367.692,240.529L367.692,263.087L392.367,238.411L392.367,220.459L399.751,220.459L399.751,236.249L415.541,236.249L415.541,243.633L397.589,243.633L372.913,268.308L395.637,268.308L413.227,250.718L418.448,255.94L406.08,268.308L426,268.308L426,275.692L405.747,275.692L418.448,288.394L413.227,293.615L395.304,275.692L372.913,275.692L397.589,300.367L415.541,300.367L415.541,307.751L399.751,307.751L399.751,323.541L392.367,323.541L392.367,305.589L367.692,280.913L367.692,303.637L385.448,321.394L380.227,326.615L367.692,314.08L367.692,334L360.308,334L360.308,314.08L347.773,326.615L342.552,321.394L360.308,303.637L360.308,280.913L335.633,305.589L335.633,323.541L328.249,323.541L328.249,307.751L312.459,307.751L312.459,300.367L330.411,300.367L355.087,275.692L332.529,275.692L314.773,293.448L309.552,288.227L322.087,275.692Z" style="fill:white;"/>
        </g>
        <g transform="matrix(0.176444,-0.0862434,0.0862434,0.176444,1253.57,92.6098)">
            <path d="M322.087,275.692L302,275.692L302,268.308L322.087,268.308L309.552,255.773L314.773,250.552L332.529,268.308L355.087,268.308L330.411,243.633L312.459,243.633L312.459,236.249L328.249,236.249L328.249,220.459L335.633,220.459L335.633,238.411L360.308,263.087L360.308,240.529L342.552,222.773L347.773,217.552L360.308,230.087L360.308,210L367.692,210L367.692,230.087L380.227,217.552L385.448,222.773L367.692,240.529L367.692,263.087L392.367,238.411L392.367,220.459L399.751,220.459L399.751,236.249L415.541,236.249L415.541,243.633L397.589,243.633L372.913,268.308L395.637,268.308L413.227,250.718L418.448,255.94L406.08,268.308L426,268.308L426,275.692L405.747,275.692L418.448,288.394L413.227,293.615L395.304,275.692L372.913,275.692L397.589,300.367L415.541,300.367L415.541,307.751L399.751,307.751L399.751,323.541L392.367,323.541L392.367,305.589L367.692,280.913L367.692,303.637L385.448,321.394L380.227,326.615L367.692,314.08L367.692,334L360.308,334L360.308,314.08L347.773,326.615L342.552,321.394L360.308,303.637L360.308,280.913L335.633,305.589L335.633,323.541L328.249,323.541L328.249,307.751L312.459,307.751L312.459,300.367L330.411,300.367L355.087,275.692L332.529,275.692L314.773,293.448L309.552,288.227L322.087,275.692Z" style="fill:white;"/>
        </g>
        <g transform="matrix(0.176444,-0.0862434,0.0862434,0.176444,1753.57,805.109)">
            <path d="M322.087,275.692L302,275.692L302,268.308L322.087,268.308L309.552,255.773L314.773,250.552L332.529,268.308L355.087,268.308L330.411,243.633L312.459,243.633L312.459,236.249L328.249,236.249L328.249,220.459L335.633,220.459L335.633,238.411L360.308,263.087L360.308,240.529L342.552,222.773L347.773,217.552L360.308,230.087L360.308,210L367.692,210L367.692,230.087L380.227,217.552L385.448,222.773L367.692,240.529L367.692,263.087L392.367,238.411L392.367,220.459L399.751,220.459L399.751,236.249L415.541,236.249L415.541,243.633L397.589,243.633L372.913,268.308L395.637,268.308L413.227,250.718L418.448,255.94L406.08,268.308L426,268.308L426,275.692L405.747,275.692L418.448,288.394L413.227,293.615L395.304,275.692L372.913,275.692L397.589,300.367L415.541,300.367L415.541,307.751L399.751,307.751L399.751,323.541L392.367,323.541L392.367,305.589L367.692,280.913L367.692,303.637L385.448,321.394L380.227,326.615L367.692,314.08L367.692,334L360.308,334L360.308,314.08L347.773,326.615L342.552,321.394L360.308,303.637L360.308,280.913L335.633,305.589L335.633,323.541L328.249,323.541L328.249,307.751L312.459,307.751L312.459,300.367L330.411,300.367L355.087,275.692L332.529,275.692L314.773,293.448L309.552,288.227L322.087,275.692Z" style="fill:white;"/>
        </g>
        <g transform="matrix(0.176444,-0.0862434,0.0862434,0.176444,1378.57,444.172)">
            <path d="M322.087,275.692L302,275.692L302,268.308L322.087,268.308L309.552,255.773L314.773,250.552L332.529,268.308L355.087,268.308L330.411,243.633L312.459,243.633L312.459,236.249L328.249,236.249L328.249,220.459L335.633,220.459L335.633,238.411L360.308,263.087L360.308,240.529L342.552,222.773L347.773,217.552L360.308,230.087L360.308,210L367.692,210L367.692,230.087L380.227,217.552L385.448,222.773L367.692,240.529L367.692,263.087L392.367,238.411L392.367,220.459L399.751,220.459L399.751,236.249L415.541,236.249L415.541,243.633L397.589,243.633L372.913,268.308L395.637,268.308L413.227,250.718L418.448,255.94L406.08,268.308L426,268.308L426,275.692L405.747,275.692L418.448,288.394L413.227,293.615L395.304,275.692L372.913,275.692L397.589,300.367L415.541,300.367L415.541,307.751L399.751,307.751L399.751,323.541L392.367,323.541L392.367,305.589L367.692,280.913L367.692,303.637L385.448,321.394L380.227,326.615L367.692,314.08L367.692,334L360.308,334L360.308,314.08L347.773,326.615L342.552,321.394L360.308,303.637L360.308,280.913L335.633,305.589L335.633,323.541L328.249,323.541L328.249,307.751L312.459,307.751L312.459,300.367L330.411,300.367L355.087,275.692L332.529,275.692L314.773,293.448L309.552,288.227L322.087,275.692Z" style="fill:white;"/>
        </g>
        <g transform="matrix(0.17473,0.0380152,-0.0380152,0.17473,1021.74,668.26)">
            <path d="M321.21,276.055L302,276.055L302,267.945L321.21,267.945L309.295,256.03L315.03,250.295L332.68,267.945L354.21,267.945L317.292,231.027L323.027,225.292L359.945,262.21L359.945,240.68L342.295,223.03L348.03,217.295L359.945,229.21L359.945,210L368.055,210L368.055,229.21L379.97,217.295L385.705,223.03L368.055,240.68L368.055,262.21L404.973,225.292L410.708,231.027L373.79,267.945L395.487,267.945L412.97,250.462L418.705,256.196L406.956,267.945L426,267.945L426,276.055L406.623,276.055L418.705,288.137L412.97,293.872L395.154,276.055L373.79,276.055L410.708,312.973L404.973,318.708L368.055,281.79L368.055,303.487L385.705,321.137L379.97,326.872L368.055,314.956L368.055,334L359.945,334L359.945,314.956L348.03,326.872L342.295,321.137L359.945,303.487L359.945,281.79L323.027,318.708L317.292,312.973L354.21,276.055L332.68,276.055L315.03,293.705L309.295,287.97L321.21,276.055Z" style="fill:white;"/>
        </g>
        <g transform="matrix(0.17473,0.0380152,-0.0380152,0.17473,1155.49,268.26)">
            <path d="M321.21,276.055L302,276.055L302,267.945L321.21,267.945L309.295,256.03L315.03,250.295L332.68,267.945L354.21,267.945L317.292,231.027L323.027,225.292L359.945,262.21L359.945,240.68L342.295,223.03L348.03,217.295L359.945,229.21L359.945,210L368.055,210L368.055,229.21L379.97,217.295L385.705,223.03L368.055,240.68L368.055,262.21L404.973,225.292L410.708,231.027L373.79,267.945L395.487,267.945L412.97,250.462L418.705,256.196L406.956,267.945L426,267.945L426,276.055L406.623,276.055L418.705,288.137L412.97,293.872L395.154,276.055L373.79,276.055L410.708,312.973L404.973,318.708L368.055,281.79L368.055,303.487L385.705,321.137L379.97,326.872L368.055,314.956L368.055,334L359.945,334L359.945,314.956L348.03,326.872L342.295,321.137L359.945,303.487L359.945,281.79L323.027,318.708L317.292,312.973L354.21,276.055L332.68,276.055L315.03,293.705L309.295,287.97L321.21,276.055Z" style="fill:white;"/>
        </g>
        <g transform="matrix(0.17473,0.0380152,-0.0380152,0.17473,80.4892,657.272)">
            <path d="M321.21,276.055L302,276.055L302,267.945L321.21,267.945L309.295,256.03L315.03,250.295L332.68,267.945L354.21,267.945L317.292,231.027L323.027,225.292L359.945,262.21L359.945,240.68L342.295,223.03L348.03,217.295L359.945,229.21L359.945,210L368.055,210L368.055,229.21L379.97,217.295L385.705,223.03L368.055,240.68L368.055,262.21L404.973,225.292L410.708,231.027L373.79,267.945L395.487,267.945L412.97,250.462L418.705,256.196L406.956,267.945L426,267.945L426,276.055L406.623,276.055L418.705,288.137L412.97,293.872L395.154,276.055L373.79,276.055L410.708,312.973L404.973,318.708L368.055,281.79L368.055,303.487L385.705,321.137L379.97,326.872L368.055,314.956L368.055,334L359.945,334L359.945,314.956L348.03,326.872L342.295,321.137L359.945,303.487L359.945,281.79L323.027,318.708L317.292,312.973L354.21,276.055L332.68,276.055L315.03,293.705L309.295,287.97L321.21,276.055Z" style="fill:white;"/>
        </g>
        <g transform="matrix(0.17473,0.0380152,-0.0380152,0.17473,1575.8,610.397)">
            <path d="M321.21,276.055L302,276.055L302,267.945L321.21,267.945L309.295,256.03L315.03,250.295L332.68,267.945L354.21,267.945L317.292,231.027L323.027,225.292L359.945,262.21L359.945,240.68L342.295,223.03L348.03,217.295L359.945,229.21L359.945,210L368.055,210L368.055,229.21L379.97,217.295L385.705,223.03L368.055,240.68L368.055,262.21L404.973,225.292L410.708,231.027L373.79,267.945L395.487,267.945L412.97,250.462L418.705,256.196L406.956,267.945L426,267.945L426,276.055L406.623,276.055L418.705,288.137L412.97,293.872L395.154,276.055L373.79,276.055L410.708,312.973L404.973,318.708L368.055,281.79L368.055,303.487L385.705,321.137L379.97,326.872L368.055,314.956L368.055,334L359.945,334L359.945,314.956L348.03,326.872L342.295,321.137L359.945,303.487L359.945,281.79L323.027,318.708L317.292,312.973L354.21,276.055L332.68,276.055L315.03,293.705L309.295,287.97L321.21,276.055Z" style="fill:white;"/>
        </g>
        <g transform="matrix(0.17473,0.0380152,-0.0380152,0.17473,1814.86,61.9605)">
            <path d="M321.21,276.055L302,276.055L302,267.945L321.21,267.945L309.295,256.03L315.03,250.295L332.68,267.945L354.21,267.945L317.292,231.027L323.027,225.292L359.945,262.21L359.945,240.68L342.295,223.03L348.03,217.295L359.945,229.21L359.945,210L368.055,210L368.055,229.21L379.97,217.295L385.705,223.03L368.055,240.68L368.055,262.21L404.973,225.292L410.708,231.027L373.79,267.945L395.487,267.945L412.97,250.462L418.705,256.196L406.956,267.945L426,267.945L426,276.055L406.623,276.055L418.705,288.137L412.97,293.872L395.154,276.055L373.79,276.055L410.708,312.973L404.973,318.708L368.055,281.79L368.055,303.487L385.705,321.137L379.97,326.872L368.055,314.956L368.055,334L359.945,334L359.945,314.956L348.03,326.872L342.295,321.137L359.945,303.487L359.945,281.79L323.027,318.708L317.292,312.973L354.21,276.055L332.68,276.055L315.03,293.705L309.295,287.97L321.21,276.055Z" style="fill:white;"/>
        </g>
        <g transform="matrix(0.17473,0.0380152,-0.0380152,0.17473,778.926,8.83556)">
            <path d="M321.21,276.055L302,276.055L302,267.945L321.21,267.945L309.295,256.03L315.03,250.295L332.68,267.945L354.21,267.945L317.292,231.027L323.027,225.292L359.945,262.21L359.945,240.68L342.295,223.03L348.03,217.295L359.945,229.21L359.945,210L368.055,210L368.055,229.21L379.97,217.295L385.705,223.03L368.055,240.68L368.055,262.21L404.973,225.292L410.708,231.027L373.79,267.945L395.487,267.945L412.97,250.462L418.705,256.196L406.956,267.945L426,267.945L426,276.055L406.623,276.055L418.705,288.137L412.97,293.872L395.154,276.055L373.79,276.055L410.708,312.973L404.973,318.708L368.055,281.79L368.055,303.487L385.705,321.137L379.97,326.872L368.055,314.956L368.055,334L359.945,334L359.945,314.956L348.03,326.872L342.295,321.137L359.945,303.487L359.945,281.79L323.027,318.708L317.292,312.973L354.21,276.055L332.68,276.055L315.03,293.705L309.295,287.97L321.21,276.055Z" style="fill:white;"/>
        </g>
        <g transform="matrix(0.17473,0.0380152,-0.0380152,0.17473,439.864,907.272)">
            <path d="M321.21,276.055L302,276.055L302,267.945L321.21,267.945L309.295,256.03L315.03,250.295L332.68,267.945L354.21,267.945L317.292,231.027L323.027,225.292L359.945,262.21L359.945,240.68L342.295,223.03L348.03,217.295L359.945,229.21L359.945,210L368.055,210L368.055,229.21L379.97,217.295L385.705,223.03L368.055,240.68L368.055,262.21L404.973,225.292L410.708,231.027L373.79,267.945L395.487,267.945L412.97,250.462L418.705,256.196L406.956,267.945L426,267.945L426,276.055L406.623,276.055L418.705,288.137L412.97,293.872L395.154,276.055L373.79,276.055L410.708,312.973L404.973,318.708L368.055,281.79L368.055,303.487L385.705,321.137L379.97,326.872L368.055,314.956L368.055,334L359.945,334L359.945,314.956L348.03,326.872L342.295,321.137L359.945,303.487L359.945,281.79L323.027,318.708L317.292,312.973L354.21,276.055L332.68,276.055L315.03,293.705L309.295,287.97L321.21,276.055Z" style="fill:white;"/>
        </g>
        <g transform="matrix(0.17473,0.0380152,-0.0380152,0.17473,1264.86,879.147)">
            <path d="M321.21,276.055L302,276.055L302,267.945L321.21,267.945L309.295,256.03L315.03,250.295L332.68,267.945L354.21,267.945L317.292,231.027L323.027,225.292L359.945,262.21L359.945,240.68L342.295,223.03L348.03,217.295L359.945,229.21L359.945,210L368.055,210L368.055,229.21L379.97,217.295L385.705,223.03L368.055,240.68L368.055,262.21L404.973,225.292L410.708,231.027L373.79,267.945L395.487,267.945L412.97,250.462L418.705,256.196L406.956,267.945L426,267.945L426,276.055L406.623,276.055L418.705,288.137L412.97,293.872L395.154,276.055L373.79,276.055L410.708,312.973L404.973,318.708L368.055,281.79L368.055,303.487L385.705,321.137L379.97,326.872L368.055,314.956L368.055,334L359.945,334L359.945,314.956L348.03,326.872L342.295,321.137L359.945,303.487L359.945,281.79L323.027,318.708L317.292,312.973L354.21,276.055L332.68,276.055L315.03,293.705L309.295,287.97L321.21,276.055Z" style="fill:white;"/>
        </g>
        <g transform="matrix(0.176444,-0.0862434,0.0862434,0.176444,5.12938,976.984)">
            <path d="M322.087,275.692L302,275.692L302,268.308L322.087,268.308L309.552,255.773L314.773,250.552L332.529,268.308L355.087,268.308L330.411,243.633L312.459,243.633L312.459,236.249L328.249,236.249L328.249,220.459L335.633,220.459L335.633,238.411L360.308,263.087L360.308,240.529L342.552,222.773L347.773,217.552L360.308,230.087L360.308,210L367.692,210L367.692,230.087L380.227,217.552L385.448,222.773L367.692,240.529L367.692,263.087L392.367,238.411L392.367,220.459L399.751,220.459L399.751,236.249L415.541,236.249L415.541,243.633L397.589,243.633L372.913,268.308L395.637,268.308L413.227,250.718L418.448,255.94L406.08,268.308L426,268.308L426,275.692L405.747,275.692L418.448,288.394L413.227,293.615L395.304,275.692L372.913,275.692L397.589,300.367L415.541,300.367L415.541,307.751L399.751,307.751L399.751,323.541L392.367,323.541L392.367,305.589L367.692,280.913L367.692,303.637L385.448,321.394L380.227,326.615L367.692,314.08L367.692,334L360.308,334L360.308,314.08L347.773,326.615L342.552,321.394L360.308,303.637L360.308,280.913L335.633,305.589L335.633,323.541L328.249,323.541L328.249,307.751L312.459,307.751L312.459,300.367L330.411,300.367L355.087,275.692L332.529,275.692L314.773,293.448L309.552,288.227L322.087,275.692Z" style="fill:white;"/>
        </g>
    </g>
</svg>
